<svg width="317" height="232" viewBox="0 0 317 232" fill="none" xmlns="http://www.w3.org/2000/svg">
<mask id="mask0_522_2036" style="mask-type:alpha" maskUnits="userSpaceOnUse" x="0" y="0" width="317" height="232">
<path d="M0 0H317V232H0V0Z" fill="#D9D9D9"/>
</mask>
<g mask="url(#mask0_522_2036)">
<mask id="mask1_522_2036" style="mask-type:luminance" maskUnits="userSpaceOnUse" x="-105" y="63" width="389" height="390">
<path d="M-56.2836 385.674C-39.3304 405.07 -12.5947 416.219 21.9223 415.417C-12.5947 416.202 -39.3304 405.053 -56.2836 385.674C-59.7898 381.528 -64.2994 375.856 -67.5439 371.492C-69.7251 368.59 -72.4515 364.581 -74.3164 361.489C-77.8663 355.669 -82.2232 347.689 -85.315 341.613C-87.1417 338.024 -89.1048 333.006 -90.7025 329.302C-93.4077 322.913 -95.6207 316.327 -97.3223 309.601C-98.3202 305.455 -99.847 299.957 -100.621 295.763C-101.717 289.916 -102.901 281.996 -103.517 276.039C-103.975 271.643 -104.324 265.747 -104.346 261.312C-104.346 255.405 -104.128 247.518 -103.697 241.622C-103.021 232.529 -100.627 220.535 -98.7619 211.601C-97.7258 206.724 -95.6865 200.37 -94.0942 195.641C-92.5946 191.174 -90.1954 185.365 -88.4613 180.985C-86.2202 175.307 -82.2286 168.178 -79.4585 162.74C-77.0278 158.191 -74.3293 153.79 -71.3773 149.562C-67.9474 144.571 -63.0016 138.195 -59.2936 133.373C-55.4766 128.415 -49.6528 122.388 -45.116 118.1C-37.9191 111.445 -30.3647 105.186 -22.4863 99.3534C-16.5569 95.1235 -10.3805 91.2513 -3.99001 87.7572C2.67346 84.0809 11.8235 79.6301 18.9777 76.9956C29.0602 73.2757 36.3944 70.6139 50.5065 67.6521C57.5081 66.1849 66.909 64.6904 74.0196 64.2813C77.9729 64.0577 83.2405 63.6377 87.1993 63.654C93.1975 63.654 101.235 63.9377 107.228 64.4013C110.08 64.6195 113.875 65.034 116.694 65.4922C126.34 67.0194 127.824 67.254 133.124 68.5085C138.326 69.7412 141.331 70.4775 147.667 72.4411C152.029 73.7939 156.539 75.3865 161.065 77.1756C180.073 84.6587 197.775 95.1102 213.511 108.141C215.997 110.202 219.296 112.984 221.609 115.231C226.02 119.524 231.795 125.366 235.906 129.958C238.802 133.193 242.39 137.747 245.018 141.2C247.199 144.058 249.926 147.985 251.91 150.98C255.728 156.761 260.532 164.692 263.454 170.97C265.139 174.598 267.544 179.37 269.011 183.096C271.317 188.926 274.142 196.808 276.018 202.792C277.294 206.85 278.701 212.348 279.546 216.515C280.735 222.395 282.06 230.293 282.818 236.249C283.908 245.036 284.105 256.9 283.854 265.758C283.685 271.758 282.79 279.694 282 285.628C281.394 290.172 280.042 296.139 279.202 300.644C278.112 306.573 275.674 314.281 273.749 319.986C272.239 324.448 270.02 330.349 268.117 334.647C265.794 339.916 262.271 346.745 259.675 351.884C256.911 357.338 252.33 364.161 248.879 369.223C243.758 376.723 235.792 385.908 229.657 392.606C225.458 397.15 219.324 402.67 214.596 406.641C195.364 422.766 173.186 435.003 149.292 442.673C142.678 444.783 135.961 446.551 129.165 447.969C121.377 449.499 113.517 450.634 105.614 451.367C101.666 451.689 96.382 452.011 92.4232 452C86.425 452 78.3874 451.716 72.3892 451.253C68.0595 450.914 59.373 449.78 54.2418 448.76C51.9134 448.296 48.7889 447.724 46.4986 447.151C44.2084 446.578 41.2584 445.891 39.0281 445.285C36.896 444.707 34.0769 443.846 31.9393 443.218C28.0623 442.078 20.8971 439.466 18.5415 438.489C16.6057 437.687 14.0156 436.646 12.0961 435.811C10.1767 434.977 7.64108 433.766 5.73256 432.893C3.82404 432.02 1.32659 430.711 -0.554665 429.729C-2.66495 428.639 -8.63046 425.366 -13.4945 422.284C-22.1374 416.83 -27.0177 412.962 -27.0668 412.924C-29.1171 411.288 -31.8981 409.199 -33.9048 407.519C-36.3804 405.446 -39.6413 402.61 -42.0078 400.428C-46.4956 396.195 -52.0957 390.196 -56.2836 385.674Z" fill="white"/>
</mask>
<g mask="url(#mask1_522_2036)">
<path d="M21.9228 415.417C106.149 413.513 204.825 341.406 242.325 254.363C187.615 191.763 74.9852 142.547 -9.24614 144.467C-46.7405 231.509 -32.7864 352.822 21.9228 415.417Z" stroke="black" stroke-width="0.5" stroke-miterlimit="10"/>
<path d="M21.9238 415.417C67.0359 382.178 134.009 284.668 171.509 197.626" stroke="black" stroke-width="0.5" stroke-miterlimit="10"/>
<path d="M21.9217 415.417C17.194 360.409 43.7607 245.238 81.255 158.196" stroke="black" stroke-width="0.5" stroke-miterlimit="10"/>
<path d="M21.9234 415.417C-32.7858 352.822 -46.7398 231.509 -9.24551 144.467C-93.4714 146.371 -117.404 198.662 -62.6842 261.263C-100.195 348.305 -62.308 417.326 21.9234 415.417Z" stroke="black" stroke-width="0.5" stroke-miterlimit="10"/>
<path d="M21.9221 415.417C-67.8276 362.329 -110.191 248.729 -72.6971 161.681" stroke="black" stroke-width="0.5" stroke-miterlimit="10"/>
<path d="M21.923 415.417C-78.4109 385.472 -129.368 290.63 -91.8741 203.583" stroke="black" stroke-width="0.5" stroke-miterlimit="10"/>
<path d="M-62.7012 261.263C-25.2014 174.216 73.4748 102.108 157.701 100.204C212.404 162.827 226.364 284.112 188.864 371.187C104.638 373.063 -7.99194 323.859 -62.7012 261.263Z" stroke="black" stroke-width="0.5" stroke-miterlimit="10"/>
<path d="M-7.61133 181.241C39.6274 235.295 136.891 277.785 209.606 276.149" stroke="black" stroke-width="0.5" stroke-miterlimit="10"/>
<path d="M71.457 123.462C99.0707 155.054 155.917 179.888 198.428 178.928" stroke="black" stroke-width="0.5" stroke-miterlimit="10"/>
<path d="M8.11719 318C45.617 230.953 112.584 133.444 157.702 100.204" stroke="black" stroke-width="0.5" stroke-miterlimit="10"/>
<path d="M98.3672 357.425C135.862 270.378 162.428 155.218 157.701 100.204" stroke="black" stroke-width="0.5" stroke-miterlimit="10"/>
<path d="M188.865 371.187C226.364 284.139 212.405 162.827 157.701 100.232C241.927 98.3225 279.847 167.321 242.325 254.391C297.029 316.959 273.096 369.25 188.865 371.187Z" stroke="black" stroke-width="0.5" stroke-miterlimit="10"/>
<path d="M209.607 276.132C282.339 274.496 303.005 229.338 255.766 175.285" stroke="black" stroke-width="0.5" stroke-miterlimit="10"/>
<path d="M198.428 178.929C240.961 177.969 253.017 151.574 225.409 119.977" stroke="black" stroke-width="0.5" stroke-miterlimit="10"/>
<path d="M252.32 353.94C289.804 266.892 247.451 153.293 157.701 100.204" stroke="black" stroke-width="0.5" stroke-miterlimit="10"/>
<path d="M271.498 312.039C308.993 225.008 258.04 130.149 157.701 100.204" stroke="black" stroke-width="0.5" stroke-miterlimit="10"/>
<path d="M242.325 254.364C279.819 167.316 241.927 98.2954 157.701 100.204C102.997 37.6038 28.2537 57.4198 -9.24609 144.467C74.9853 142.558 187.616 191.763 242.325 254.364Z" stroke="black" stroke-width="0.5" stroke-miterlimit="10"/>
<path d="M255.766 175.285C208.528 121.231 111.264 78.7412 38.5488 80.3775" stroke="black" stroke-width="0.5" stroke-miterlimit="10"/>
<path d="M225.409 119.977C197.795 88.3844 140.938 63.5557 98.4375 64.5157" stroke="black" stroke-width="0.5" stroke-miterlimit="10"/>
<path d="M171.508 197.626C209.002 110.579 202.819 66.9649 157.701 100.204" stroke="black" stroke-width="0.5" stroke-miterlimit="10"/>
<path d="M81.2559 158.196C118.75 71.1541 152.978 45.1909 157.7 100.204" stroke="black" stroke-width="0.5" stroke-miterlimit="10"/>
<path d="M-9.24715 144.467C28.2526 57.4198 102.996 37.6038 157.7 100.204C73.4737 102.108 -25.2024 174.216 -62.7022 261.263C-117.406 198.663 -93.4731 146.371 -9.24715 144.467Z" stroke="black" stroke-width="0.5" stroke-miterlimit="10"/>
<path d="M38.5495 80.3936C-34.1817 82.0299 -54.8483 127.187 -7.60958 181.241" stroke="black" stroke-width="0.5" stroke-miterlimit="10"/>
<path d="M98.439 64.5159C55.928 65.4759 43.877 91.8699 71.458 123.462" stroke="black" stroke-width="0.5" stroke-miterlimit="10"/>
<path d="M-72.6953 161.681C-35.1901 74.6337 67.9575 47.116 157.702 100.204" stroke="black" stroke-width="0.5" stroke-miterlimit="10"/>
<path d="M-91.873 203.583C-54.3733 116.535 57.3682 70.2542 157.702 100.205" stroke="black" stroke-width="0.5" stroke-miterlimit="10"/>
<path d="M-56.2836 385.674C-39.3304 405.07 -12.5947 416.219 21.9223 415.417C-12.5947 416.202 -39.3304 405.053 -56.2836 385.674ZM-56.2836 385.674C-59.7898 381.528 -64.2994 375.856 -67.5439 371.492C-69.7251 368.59 -72.4515 364.581 -74.3164 361.489C-77.8663 355.669 -82.2232 347.689 -85.315 341.613C-87.1417 338.024 -89.1048 333.006 -90.7025 329.302C-93.4077 322.913 -95.6207 316.327 -97.3223 309.601C-98.3202 305.455 -99.847 299.957 -100.621 295.763C-101.717 289.916 -102.901 281.996 -103.517 276.039C-103.975 271.643 -104.324 265.747 -104.346 261.312C-104.346 255.405 -104.128 247.518 -103.697 241.622C-103.021 232.529 -100.627 220.535 -98.7619 211.601C-97.7258 206.724 -95.6865 200.37 -94.0942 195.641C-92.5946 191.174 -90.1954 185.365 -88.4613 180.985C-86.2202 175.307 -82.2286 168.178 -79.4585 162.74C-77.0278 158.191 -74.3293 153.79 -71.3773 149.562C-67.9474 144.571 -63.0016 138.195 -59.2936 133.373C-55.4766 128.415 -49.6528 122.388 -45.116 118.1C-37.9191 111.445 -30.3647 105.186 -22.4863 99.3534C-16.5569 95.1235 -10.3805 91.2513 -3.99001 87.7572C2.67347 84.0809 11.8235 79.6301 18.9777 76.9956C29.0602 73.2757 36.3944 70.6139 50.5066 67.6521C57.5081 66.1849 66.909 64.6904 74.0196 64.2813C77.9729 64.0577 83.2405 63.6377 87.1993 63.654C93.1975 63.654 101.235 63.9377 107.228 64.4013C110.08 64.6195 113.875 65.034 116.694 65.4922C126.34 67.0194 127.824 67.254 133.124 68.5085C138.326 69.7412 141.331 70.4775 147.667 72.4411C152.029 73.7939 156.539 75.3866 161.065 77.1756C180.073 84.6587 197.775 95.1102 213.511 108.141C215.997 110.202 219.296 112.984 221.609 115.231C226.02 119.524 231.795 125.366 235.906 129.958C238.802 133.193 242.39 137.747 245.018 141.2C247.199 144.058 249.926 147.985 251.91 150.98C255.727 156.761 260.532 164.692 263.454 170.97C265.139 174.598 267.544 179.37 269.011 183.096C271.317 188.926 274.142 196.808 276.018 202.792C277.294 206.85 278.701 212.348 279.546 216.515C280.735 222.395 282.06 230.293 282.818 236.249C283.908 245.036 284.105 256.9 283.854 265.758C283.685 271.758 282.79 279.694 282 285.628C281.394 290.172 280.042 296.139 279.202 300.644C278.112 306.573 275.674 314.281 273.749 319.986C272.239 324.448 270.02 330.349 268.117 334.647C265.794 339.916 262.271 346.745 259.675 351.884C256.911 357.338 252.33 364.161 248.879 369.223C243.758 376.723 235.792 385.908 229.657 392.606C225.458 397.15 219.324 402.67 214.596 406.641C195.364 422.766 173.186 435.003 149.292 442.673C142.678 444.783 135.961 446.551 129.165 447.969C121.377 449.499 113.517 450.634 105.614 451.367C101.666 451.689 96.382 452.011 92.4232 452C86.425 452 78.3874 451.716 72.3892 451.253C68.0595 450.914 59.373 449.78 54.2418 448.76C51.9134 448.296 48.7889 447.724 46.4986 447.151C44.2084 446.578 41.2584 445.891 39.0281 445.286C36.896 444.707 34.0769 443.846 31.9393 443.218C28.0623 442.078 20.8971 439.466 18.5415 438.489C16.6057 437.687 14.0156 436.646 12.0961 435.811C10.1767 434.977 7.64108 433.766 5.73256 432.893C3.82403 432.02 1.32659 430.711 -0.554666 429.729C-2.66495 428.639 -8.63046 425.366 -13.4945 422.284C-22.1374 416.83 -27.0177 412.962 -27.0668 412.924C-29.1171 411.288 -31.8981 409.199 -33.9048 407.519C-36.3804 405.446 -39.6413 402.61 -42.0078 400.428C-46.4956 396.195 -52.0957 390.196 -56.2836 385.674Z" stroke="black" stroke-width="0.5" stroke-miterlimit="10"/>
</g>
<path d="M-56.2836 385.674C-39.3304 405.07 -12.5947 416.219 21.9223 415.417C-12.5947 416.202 -39.3304 405.053 -56.2836 385.674ZM-56.2836 385.674C-59.7898 381.528 -64.2994 375.856 -67.5439 371.492C-69.7251 368.59 -72.4515 364.581 -74.3164 361.489C-77.8663 355.669 -82.2232 347.689 -85.315 341.613C-87.1417 338.024 -89.1048 333.006 -90.7025 329.302C-93.4077 322.913 -95.6207 316.327 -97.3223 309.601C-98.3202 305.455 -99.847 299.957 -100.621 295.763C-101.717 289.916 -102.901 281.996 -103.517 276.039C-103.975 271.643 -104.324 265.747 -104.346 261.312C-104.346 255.405 -104.128 247.518 -103.697 241.622C-103.021 232.529 -100.627 220.535 -98.7619 211.601C-97.7258 206.724 -95.6865 200.37 -94.0942 195.641C-92.5946 191.174 -90.1954 185.365 -88.4613 180.985C-86.2202 175.307 -82.2286 168.178 -79.4585 162.74C-77.0278 158.191 -74.3293 153.79 -71.3773 149.562C-67.9474 144.571 -63.0016 138.195 -59.2936 133.373C-55.4766 128.415 -49.6528 122.388 -45.116 118.1C-37.9191 111.445 -30.3647 105.186 -22.4863 99.3534C-16.5569 95.1235 -10.3805 91.2513 -3.99001 87.7572C2.67347 84.0809 11.8235 79.6301 18.9777 76.9956C29.0602 73.2757 36.3944 70.6139 50.5066 67.6521C57.5081 66.1849 66.909 64.6904 74.0196 64.2813C77.9729 64.0577 83.2405 63.6377 87.1993 63.654C93.1975 63.654 101.235 63.9377 107.228 64.4013C110.08 64.6195 113.875 65.034 116.694 65.4922C126.34 67.0194 127.824 67.254 133.124 68.5085C138.326 69.7412 141.331 70.4775 147.667 72.4411C152.029 73.7939 156.539 75.3866 161.065 77.1756C180.073 84.6587 197.775 95.1102 213.511 108.141C215.997 110.202 219.296 112.984 221.609 115.231C226.02 119.524 231.795 125.366 235.906 129.958C238.802 133.193 242.39 137.747 245.018 141.2C247.199 144.058 249.926 147.985 251.91 150.98C255.727 156.761 260.532 164.692 263.454 170.97C265.139 174.598 267.544 179.37 269.011 183.096C271.317 188.926 274.142 196.808 276.018 202.792C277.294 206.85 278.701 212.348 279.546 216.515C280.735 222.395 282.06 230.293 282.818 236.249C283.908 245.036 284.105 256.9 283.854 265.758C283.685 271.758 282.79 279.694 282 285.628C281.394 290.172 280.042 296.139 279.202 300.644C278.112 306.573 275.674 314.281 273.749 319.986C272.239 324.448 270.02 330.349 268.117 334.647C265.794 339.916 262.271 346.745 259.675 351.884C256.911 357.338 252.33 364.161 248.879 369.223C243.758 376.723 235.792 385.908 229.657 392.606C225.458 397.15 219.324 402.67 214.596 406.641C195.364 422.766 173.186 435.003 149.292 442.673C142.678 444.783 135.961 446.551 129.165 447.969C121.377 449.499 113.517 450.634 105.614 451.367C101.666 451.689 96.382 452.011 92.4232 452C86.425 452 78.3874 451.716 72.3892 451.253C68.0595 450.914 59.373 449.78 54.2418 448.76C51.9134 448.296 48.7889 447.724 46.4986 447.151C44.2084 446.578 41.2584 445.891 39.0281 445.286C36.896 444.707 34.0769 443.846 31.9393 443.218C28.0623 442.078 20.8971 439.466 18.5415 438.489C16.6057 437.687 14.0156 436.646 12.0961 435.811C10.1767 434.977 7.64108 433.766 5.73256 432.893C3.82403 432.02 1.32659 430.711 -0.554666 429.729C-2.66495 428.639 -8.63046 425.366 -13.4945 422.284C-22.1374 416.83 -27.0177 412.962 -27.0668 412.924C-29.1171 411.288 -31.8981 409.199 -33.9048 407.519C-36.3804 405.446 -39.6413 402.61 -42.0078 400.428C-46.4956 396.195 -52.0957 390.196 -56.2836 385.674Z" stroke="black" stroke-width="0.5" stroke-miterlimit="10"/>
<mask id="mask2_522_2036" style="mask-type:luminance" maskUnits="userSpaceOnUse" x="-105" y="63" width="389" height="389">
<path d="M94.1133 451.94C88.0606 452.054 79.9793 451.836 73.9375 451.356C67.4055 450.826 60.9045 449.965 54.4596 448.776C52.1312 448.313 49.0067 447.745 46.711 447.178C44.4153 446.611 41.4653 445.918 39.235 445.318C37.0048 444.718 34.1638 443.873 32.0045 443.213C29.8451 442.553 27.1568 441.68 25.1174 440.922C17.0798 437.916 16.24 437.606 12.1013 435.784C8.2515 434.082 3.21299 431.6 -0.544083 429.707C-2.48532 428.731 -5.01003 427.313 -6.89129 426.217C-11.8589 423.331 -11.8589 423.331 -19.782 418.128C-21.7887 416.813 -24.3516 414.899 -26.2874 413.48C-30.9496 410.061 -37.4059 404.639 -40.7104 401.579C-46.2028 396.577 -51.406 391.267 -56.2948 385.674C-80.7021 357.731 -84.8136 312.639 -62.702 261.263C-84.8136 312.639 -80.7021 357.731 -56.2839 385.674C-60.788 380.219 -66.8735 372.91 -70.7342 366.965C-73.8042 362.236 -77.7685 355.843 -80.5494 350.934C-82.507 347.476 -84.8464 342.709 -86.5149 339.093C-89.5577 332.487 -93.2875 323.477 -95.2833 316.479C-96.4447 312.399 -98.1624 306.999 -99.0676 302.842C-100.453 296.499 -102.181 287.995 -102.917 281.57C-103.414 277.207 -104.008 271.348 -104.161 266.947C-104.357 260.794 -104.324 252.585 -104.041 246.438C-103.615 237.345 -101.718 225.302 -99.8746 216.389C-98.51 209.716 -96.6992 203.141 -94.4544 196.71C-92.7149 191.97 -90.4465 185.626 -88.4562 180.985C-86.6076 176.648 -83.8158 171.019 -81.6782 166.803C-78.9517 161.43 -74.922 154.421 -71.3722 149.545C-68.6784 145.842 -65.2703 140.758 -62.3857 137.202C-58.6178 132.544 -53.4484 126.429 -49.2115 122.197C-42.957 115.929 -34.1996 107.928 -27.0671 102.686C-22.2304 99.1351 -15.5833 94.6679 -10.4902 91.4934C-6.88583 89.2462 -1.88005 86.5844 1.89338 84.6318C7.46627 81.7463 15.204 78.5228 21.0277 76.1883C24.7357 74.7047 29.8505 73.172 33.6403 71.9065C40.1838 69.7247 49.2466 67.7775 56.0519 66.5775C63.7882 65.2281 71.5978 64.3393 79.4395 63.9158C84.3471 63.703 90.8906 63.6376 95.7983 63.7194C99.2336 63.7794 103.814 64.063 107.249 64.4012C109.905 64.663 113.449 64.9794 116.083 65.3939C127.851 67.2539 127.851 67.2539 132.9 68.4648C138.124 69.7029 141.003 70.3847 147.623 72.4247C154.755 74.6337 161.021 77.1537 161.075 77.1755C167.144 79.6573 168.977 80.41 173.884 82.7718C181.109 86.2463 186.464 89.388 186.519 89.4208C190.766 91.9189 194.431 94.0734 199.409 97.5097C207.589 103.166 212.442 107.24 212.965 107.688C220.599 114.151 224.776 117.713 234.668 128.551C237.394 131.551 240.819 135.762 243.322 138.964C245.503 141.778 248.311 145.645 250.318 148.596C252.859 152.327 256.038 157.438 258.301 161.343C260.275 164.752 262.816 169.367 264.446 172.961C271.999 189.619 272.517 190.846 277.822 209.25C279.759 216.267 281.188 223.414 282.098 230.636C283.266 240.376 283.901 250.172 284.001 259.981C284.001 266.232 283.624 274.599 282.643 280.774C281.694 286.774 280.62 294.77 279.197 300.655C278.106 305.166 276.557 311.155 275.172 315.584C273.351 321.409 270.717 329.144 268.084 334.675C266.066 338.929 263.541 344.689 261.306 348.856C258.579 353.863 254.887 360.507 251.632 365.17C246.408 372.638 239.167 382.461 232.945 389.121C228.91 393.435 223.277 398.966 218.914 402.959C215.643 405.932 211.046 409.597 207.572 412.308C202.845 416 196.121 420.391 191.072 423.593C187.473 425.862 182.423 428.458 178.71 430.531C172.592 433.864 166.223 436.716 159.663 439.062C155.879 440.387 150.9 442.335 147.045 443.425C140.425 445.285 131.531 447.533 124.786 448.88C114.656 450.691 104.401 451.714 94.1133 451.94Z" fill="white"/>
</mask>
<g mask="url(#mask2_522_2036)">
<path d="M21.9208 415.417C106.147 413.513 204.823 341.406 242.323 254.363C187.614 191.763 74.9833 142.547 -9.24809 144.467C-46.7424 231.509 -32.7884 352.822 21.9208 415.417Z" stroke="black" stroke-width="0.5" stroke-miterlimit="10"/>
<path d="M21.9219 415.417C67.034 382.178 134.007 284.668 171.507 197.626" stroke="black" stroke-width="0.5" stroke-miterlimit="10"/>
<path d="M21.9217 415.417C17.194 360.409 43.7607 245.238 81.255 158.196" stroke="black" stroke-width="0.5" stroke-miterlimit="10"/>
<path d="M21.9215 415.417C-32.7878 352.822 -46.7418 231.509 -9.24746 144.467C-93.4734 146.371 -117.406 198.662 -62.6862 261.263C-100.197 348.305 -62.3099 417.326 21.9215 415.417Z" stroke="black" stroke-width="0.5" stroke-miterlimit="10"/>
<path d="M21.9202 415.417C-67.8296 362.329 -110.193 248.729 -72.699 161.681" stroke="black" stroke-width="0.5" stroke-miterlimit="10"/>
<path d="M21.9211 415.417C-78.4128 385.472 -129.37 290.63 -91.8761 203.583" stroke="black" stroke-width="0.5" stroke-miterlimit="10"/>
<path d="M-62.7031 261.263C-25.2033 174.216 73.4728 102.108 157.699 100.204C212.403 162.827 226.362 284.112 188.862 371.187C104.636 373.063 -7.9939 323.859 -62.7031 261.263Z" stroke="black" stroke-width="0.5" stroke-miterlimit="10"/>
<path d="M-7.61133 181.241C39.6274 235.295 136.891 277.785 209.606 276.149" stroke="black" stroke-width="0.5" stroke-miterlimit="10"/>
<path d="M71.4551 123.462C99.0687 155.054 155.915 179.888 198.427 178.928" stroke="black" stroke-width="0.5" stroke-miterlimit="10"/>
<path d="M8.11328 318C45.6131 230.953 112.58 133.444 157.698 100.204" stroke="black" stroke-width="0.5" stroke-miterlimit="10"/>
<path d="M98.3652 357.425C135.86 270.378 162.426 155.218 157.699 100.204" stroke="black" stroke-width="0.5" stroke-miterlimit="10"/>
<path d="M188.863 371.187C226.363 284.139 212.403 162.827 157.699 100.232C241.925 98.3225 279.845 167.321 242.323 254.391C297.027 316.959 273.094 369.25 188.863 371.187Z" stroke="black" stroke-width="0.5" stroke-miterlimit="10"/>
<path d="M209.605 276.132C282.337 274.496 303.003 229.338 255.765 175.285" stroke="black" stroke-width="0.5" stroke-miterlimit="10"/>
<path d="M198.428 178.929C240.961 177.969 253.017 151.574 225.409 119.977" stroke="black" stroke-width="0.5" stroke-miterlimit="10"/>
<path d="M252.318 353.94C289.802 266.892 247.449 153.293 157.699 100.204" stroke="black" stroke-width="0.5" stroke-miterlimit="10"/>
<path d="M271.496 312.039C308.991 225.008 258.039 130.149 157.699 100.204" stroke="black" stroke-width="0.5" stroke-miterlimit="10"/>
<path d="M242.323 254.364C279.817 167.316 241.925 98.2954 157.699 100.204C102.995 37.6038 28.2517 57.4198 -9.24805 144.467C74.9833 142.558 187.614 191.763 242.323 254.364Z" stroke="black" stroke-width="0.5" stroke-miterlimit="10"/>
<path d="M255.764 175.285C208.526 121.231 111.262 78.7412 38.5469 80.3775" stroke="black" stroke-width="0.5" stroke-miterlimit="10"/>
<path d="M225.409 119.977C197.795 88.3844 140.938 63.5557 98.4375 64.5157" stroke="black" stroke-width="0.5" stroke-miterlimit="10"/>
<path d="M171.506 197.626C209 110.579 202.817 66.9649 157.699 100.204" stroke="black" stroke-width="0.5" stroke-miterlimit="10"/>
<path d="M81.2539 158.196C118.748 71.1541 152.976 45.1909 157.699 100.204" stroke="black" stroke-width="0.5" stroke-miterlimit="10"/>
<path d="M-9.24715 144.467C28.2526 57.4198 102.996 37.6038 157.7 100.204C73.4737 102.108 -25.2024 174.216 -62.7022 261.263C-117.406 198.663 -93.4731 146.371 -9.24715 144.467Z" stroke="black" stroke-width="0.5" stroke-miterlimit="10"/>
<path d="M38.5475 80.3936C-34.1836 82.0299 -54.8502 127.187 -7.61153 181.241" stroke="black" stroke-width="0.5" stroke-miterlimit="10"/>
<path d="M98.4371 64.5159C55.9261 65.4759 43.8751 91.8699 71.456 123.462" stroke="black" stroke-width="0.5" stroke-miterlimit="10"/>
<path d="M-72.6973 161.681C-35.192 74.6337 67.9556 47.116 157.7 100.204" stroke="black" stroke-width="0.5" stroke-miterlimit="10"/>
<path d="M-91.877 203.583C-54.3772 116.535 57.3643 70.2542 157.698 100.205" stroke="black" stroke-width="0.5" stroke-miterlimit="10"/>
</g>
<path d="M-62.702 261.263C-84.8136 312.639 -80.7021 357.731 -56.2948 385.674C-51.406 391.267 -46.2028 396.577 -40.7104 401.579C-37.4059 404.639 -30.9496 410.061 -26.2874 413.48C-24.3516 414.899 -21.7887 416.813 -19.782 418.128C-11.8589 423.331 -11.8589 423.331 -6.89129 426.217C-5.01003 427.313 -2.48532 428.731 -0.544081 429.707C3.21299 431.6 8.25149 434.082 12.1013 435.784C16.24 437.606 17.0798 437.916 25.1174 440.922C27.1568 441.68 29.8451 442.553 32.0045 443.213C34.1638 443.873 37.0048 444.718 39.235 445.318C41.4653 445.918 44.4153 446.611 46.711 447.178C49.0067 447.745 52.1312 448.313 54.4596 448.776C60.9045 449.965 67.4055 450.826 73.9375 451.356C79.9793 451.836 88.0606 452.054 94.1133 451.94C104.401 451.714 114.656 450.691 124.786 448.88C131.531 447.533 140.425 445.285 147.045 443.425C150.9 442.335 155.879 440.387 159.663 439.062C166.223 436.716 172.592 433.864 178.71 430.531C182.423 428.458 187.473 425.862 191.072 423.593C196.121 420.391 202.845 416 207.572 412.308C211.046 409.597 215.643 405.932 218.914 402.959C223.277 398.966 228.91 393.435 232.945 389.121C239.167 382.461 246.408 372.638 251.632 365.17C254.887 360.507 258.579 353.863 261.306 348.856C263.541 344.689 266.066 338.929 268.084 334.675C270.717 329.144 273.351 321.409 275.172 315.584C276.557 311.155 278.106 305.166 279.197 300.655C280.62 294.77 281.694 286.774 282.643 280.774C283.624 274.599 284.001 266.232 284.001 259.981C283.901 250.172 283.266 240.376 282.098 230.636C281.188 223.414 279.759 216.267 277.822 209.25C272.517 190.846 271.999 189.619 264.446 172.961C262.816 169.367 260.275 164.752 258.301 161.343C256.038 157.438 252.859 152.327 250.318 148.596C248.311 145.645 245.503 141.778 243.322 138.964C240.819 135.762 237.394 131.551 234.668 128.551C224.776 117.713 220.599 114.151 212.965 107.688C212.442 107.24 207.589 103.166 199.409 97.5097C194.431 94.0734 190.766 91.9189 186.519 89.4208C186.464 89.388 181.109 86.2463 173.884 82.7718C168.977 80.41 167.144 79.6573 161.075 77.1755C161.021 77.1537 154.755 74.6337 147.623 72.4247C141.003 70.3847 138.124 69.7029 132.9 68.4648C127.851 67.2539 127.851 67.2539 116.083 65.3939C113.449 64.9794 109.905 64.663 107.249 64.4012C103.814 64.063 99.2336 63.7794 95.7983 63.7194C90.8906 63.6376 84.3471 63.703 79.4395 63.9158C71.5978 64.3393 63.7882 65.2281 56.0519 66.5775C49.2466 67.7775 40.1838 69.7247 33.6403 71.9065C29.8505 73.172 24.7357 74.7047 21.0277 76.1883C15.204 78.5228 7.46627 81.7463 1.89338 84.6318C-1.88005 86.5844 -6.88583 89.2462 -10.4902 91.4934C-15.5833 94.6679 -22.2304 99.1351 -27.0671 102.686C-34.1996 107.928 -42.957 115.929 -49.2115 122.197C-53.4484 126.429 -58.6178 132.544 -62.3857 137.202C-65.2703 140.758 -68.6784 145.842 -71.3722 149.545C-74.922 154.421 -78.9517 161.43 -81.6782 166.803C-83.8157 171.019 -86.6076 176.648 -88.4562 180.985C-90.4465 185.626 -92.7149 191.97 -94.4544 196.71C-96.6992 203.141 -98.51 209.716 -99.8746 216.389C-101.718 225.302 -103.615 237.345 -104.041 246.438C-104.324 252.585 -104.357 260.794 -104.161 266.947C-104.008 271.348 -103.414 277.207 -102.917 281.57C-102.181 287.995 -100.453 296.499 -99.0676 302.842C-98.1624 306.999 -96.4447 312.399 -95.2833 316.479C-93.2875 323.477 -89.5577 332.487 -86.5149 339.093C-84.8464 342.709 -82.507 347.476 -80.5494 350.934C-77.7685 355.843 -73.8042 362.236 -70.7342 366.965C-66.8735 372.91 -60.788 380.219 -56.2839 385.674C-80.7021 357.731 -84.8136 312.639 -62.702 261.263ZM-62.702 261.263C-25.2022 174.216 73.474 102.108 157.7 100.204" stroke="black" stroke-width="0.5" stroke-miterlimit="10"/>
</g>
</svg>
