<svg width="30" height="30" viewBox="0 0 30 30" fill="none" xmlns="http://www.w3.org/2000/svg">
<rect width="30" height="30" rx="2" fill="black"/>
<path d="M9.62619 8C5.78652 8 2.67383 11.1342 2.67383 15C2.67383 18.8659 5.78675 22.0001 9.62619 22.0001C13.4656 22.0001 16.5786 18.8661 16.5786 15C16.5786 11.134 13.466 8 9.62619 8ZM20.7288 8.41005C18.8089 8.41005 17.2528 11.3612 17.2528 15.0002C17.2528 18.6391 18.8091 21.5905 20.729 21.5905C22.6489 21.5905 24.2052 18.6393 24.2052 15.0002H24.205C24.205 11.3602 22.6489 8.41005 20.7289 8.41005H20.7288ZM26.1022 9.09647C25.4271 9.09647 24.8798 11.7398 24.8798 15.0002C24.8798 18.2605 25.4268 20.9039 26.1022 20.9039C26.7776 20.9039 27.3249 18.2598 27.3249 15C27.3249 11.7396 26.7773 9.09647 26.1023 9.09647H26.1022Z" fill="white"/>
</svg>
