<svg xmlns="http://www.w3.org/2000/svg" width="30" height="30" viewBox="0 0 30 30" fill="none">
  <path d="M17.7656 12.5625C16.9219 12.5625 16.2188 13.3125 16.2188 14.25C16.2188 15.1875 16.9219 15.9375 17.7656 15.9375C18.6094 15.9375 19.3125 15.1875 19.3125 14.25C19.3125 13.3125 18.6094 12.5625 17.7656 12.5625ZM12.2813 12.5625C11.4375 12.5625 10.7344 13.3125 10.7344 14.25C10.7344 15.1875 11.4375 15.9375 12.2813 15.9375C13.125 15.9375 13.8281 15.1875 13.8281 14.25C13.8281 13.3125 13.125 12.5625 12.2813 12.5625Z" fill="black"/>
  <path d="M25.0312 0H4.96875C3.23438 0 1.875 1.35937 1.875 3.09375V23.3906C1.875 25.0781 3.23438 26.4844 4.96875 26.4844H21.9844L21.1875 23.7187L23.1094 25.5L24.9375 27.1875L28.125 30V3.09375C28.125 1.35937 26.7656 0 25.0312 0ZM19.2656 19.5937C19.2656 19.5937 18.7031 18.9375 18.2812 18.375C20.25 17.8125 21 16.5938 21 16.5938C20.3906 17.0156 19.7812 17.2969 19.2656 17.4844C18.5156 17.8125 17.8125 18 17.1094 18.1406C15.6562 18.4219 14.3438 18.3281 13.2188 18.1406C12.375 17.9531 11.625 17.7187 11.0156 17.4844C10.6875 17.3437 10.3125 17.2031 9.9375 16.9688C9.89062 16.9219 9.84375 16.9219 9.79688 16.875C9.75 16.875 9.75 16.8281 9.75 16.8281C9.46875 16.6875 9.32812 16.5938 9.32812 16.5938C9.32812 16.5938 10.0312 17.8125 11.9531 18.375C11.4844 18.9375 10.9688 19.6406 10.9688 19.6406C7.64062 19.5469 6.375 17.3437 6.375 17.3437C6.375 12.5156 8.53125 8.57812 8.53125 8.57812C10.6875 6.9375 12.75 6.98437 12.75 6.98437L12.8906 7.17187C10.1719 7.96875 8.90625 9.14062 8.90625 9.14062C8.90625 9.14062 9.23438 8.95312 9.79688 8.71875C11.3906 8.01562 12.6562 7.82812 13.2188 7.78125C13.3125 7.78125 13.4062 7.73437 13.4531 7.73437C14.3906 7.59375 15.4219 7.59375 16.5 7.6875C17.9062 7.875 19.4531 8.25 21 9.14062C21 9.14062 19.8281 8.01562 17.25 7.21875L17.4375 6.98437C17.4375 6.98437 19.5 6.9375 21.6562 8.57812C21.6562 8.57812 23.8125 12.5156 23.8125 17.3437C23.8594 17.2969 22.5938 19.5 19.2656 19.5937Z" fill="black"/>
</svg>
