<svg width="197" height="49" viewBox="0 0 197 49" fill="none" xmlns="http://www.w3.org/2000/svg">
<path d="M48.6784 24.5003C48.6784 37.49 38.1482 48.0203 25.1584 48.0203C12.1687 48.0203 1.63843 37.49 1.63843 24.5003C1.63843 11.5105 12.1687 0.980286 25.1584 0.980286C38.1482 0.980286 48.6784 11.5105 48.6784 24.5003Z" fill="#FFB852"/>
<path fill-rule="evenodd" clip-rule="evenodd" d="M49.6584 24.5003C49.6584 38.0313 38.6894 49.0003 25.1584 49.0003C11.6275 49.0003 0.658447 38.0313 0.658447 24.5003C0.658447 10.9693 11.6275 0.000305176 25.1584 0.000305176C38.6894 0.000305176 49.6584 10.9693 49.6584 24.5003ZM25.1584 48.0203C38.1482 48.0203 48.6784 37.49 48.6784 24.5003C48.6784 11.5106 38.1482 0.980305 25.1584 0.980305C12.1687 0.980305 1.63845 11.5106 1.63845 24.5003C1.63845 37.49 12.1687 48.0203 25.1584 48.0203Z" fill="black"/>
<path d="M16.7929 31.3084C16.7959 31.4649 16.7982 31.5564 16.582 31.5589L13.7809 31.5869L13.8123 34.1274L18.6946 34.0745L18.7404 37.7664L21.1677 37.7375L21.1219 34.0457L22.6308 34.0298L22.6752 37.7166L24.9842 37.6917L24.9435 33.9985L26.6801 33.9826C27.8365 33.9669 31.9651 32.9391 31.9101 29.1086C31.9426 28.0721 31.6235 27.055 31.0046 26.2228C30.3858 25.3906 29.5037 24.7922 28.5016 24.5249C28.5016 24.5249 30.8353 23.0835 30.5814 20.6664C30.3275 18.2493 28.4255 17.5927 27.3311 17.2451C26.4809 17.0121 25.6068 16.8773 24.7259 16.8433L24.6795 12.9835L22.461 13.0227L22.5122 16.8595L20.7286 16.8823L20.6937 13.025L18.4498 13.0708L18.4948 16.9255L13.7916 16.9815L13.8123 19.2536L16.391 19.2231C16.6505 19.2201 16.652 19.3499 16.653 19.4364L16.7929 31.3084ZM20.7482 19.1711L23.4898 19.1412C23.9605 19.1371 26.2523 19.5017 26.263 21.4458C26.2808 21.9786 26.1072 22.5003 25.7734 22.9161C25.4396 23.3319 24.9679 23.6143 24.4438 23.7121C24.2339 23.7667 24.019 23.7994 23.8024 23.8097L20.7796 23.8428L20.7482 19.1711ZM20.8656 26.2605L25.1504 26.2221C25.4606 26.2242 25.7671 26.2896 26.0511 26.4141C26.3352 26.5387 26.5908 26.7199 26.8025 26.9466C27.0142 27.1733 27.1774 27.4408 27.2822 27.7327C27.3871 28.0246 27.4313 28.3348 27.4122 28.6444C27.4323 30.1901 26.0902 30.8835 25.3849 31.0683C25.2816 31.0988 25.1749 31.1158 25.0674 31.119L20.9328 31.1723L20.8656 26.2605Z" fill="#FFE3BD"/>
<path fill-rule="evenodd" clip-rule="evenodd" d="M15.8042 30.5866L12.7888 30.6167L12.8444 35.1179L17.7268 35.0651L17.7725 38.7579L22.1597 38.7058L22.1596 38.7022L25.9749 38.661L25.9342 34.9695L26.689 34.9625L26.6934 34.9625C27.4423 34.9523 28.9416 34.6441 30.2721 33.8051C31.6434 32.9403 32.9155 31.4485 32.8903 29.1168C32.9243 27.867 32.5373 26.6417 31.791 25.638C31.3774 25.0819 30.867 24.6118 30.2886 24.2475C30.3224 24.209 30.3561 24.1696 30.3897 24.1292C31.0388 23.3498 31.7204 22.1297 31.556 20.564C31.3995 19.0743 30.715 18.0725 29.8796 17.4112C29.0816 16.7796 28.1766 16.4854 27.6278 16.3111L27.609 16.3051L27.5901 16.2999C26.9683 16.1295 26.3347 16.0075 25.695 15.9348L25.6475 11.9863L21.6649 12.0566L21.6646 12.0249L17.4585 12.1108L17.5034 15.9572L12.8027 16.0131L12.8412 20.2452L15.682 20.2116L15.8042 30.5866ZM18.4948 16.9255L13.7915 16.9815L13.8122 19.2536L16.3909 19.2231C16.6505 19.2201 16.6519 19.3499 16.6529 19.4364L16.7928 31.3084L16.7928 31.3095C16.7959 31.4653 16.7976 31.5564 16.5819 31.5589L13.7809 31.5869L13.8123 34.1274L18.6946 34.0745L18.7403 37.7664L21.1675 37.7375L21.1219 34.0457L22.6307 34.0298L22.6751 37.7166L24.9842 37.6917L24.9435 33.9985L26.6801 33.9826C27.8365 33.9669 31.965 32.939 31.9101 29.1086C31.9425 28.0721 31.6234 27.055 31.0046 26.2228C30.6158 25.7 30.1232 25.2695 29.5621 24.9553C29.2301 24.7694 28.8741 24.6243 28.5016 24.5249C28.5016 24.5249 28.9193 24.2669 29.3821 23.7861C30.0131 23.1306 30.7278 22.0609 30.5813 20.6664C30.3274 18.2493 28.4254 17.5927 27.3311 17.2451C26.4808 17.0121 25.6067 16.8773 24.7258 16.8433L24.6795 12.9835L22.4609 13.0227L22.5121 16.8595L20.7285 16.8823L20.6936 13.025L18.4497 13.0708L18.4948 16.9255ZM26.2629 21.4458C26.2523 19.5017 23.9605 19.1371 23.4897 19.1412L20.7482 19.1711L20.7796 23.8428L23.8023 23.8097C24.0189 23.7994 24.2339 23.7667 24.4437 23.7121C24.9679 23.6143 25.4396 23.3319 25.7733 22.9161C26.1071 22.5003 26.2808 21.9786 26.2629 21.4458ZM23.7718 22.83C23.9155 22.8221 24.058 22.7998 24.1972 22.7636L24.2303 22.755L24.2639 22.7487C24.5577 22.6939 24.822 22.5357 25.0091 22.3026C25.1961 22.0696 25.2935 21.7773 25.2835 21.4786L25.283 21.4649L25.2829 21.4511C25.2802 20.9588 25.0251 20.6581 24.592 20.4299C24.369 20.3124 24.123 20.2319 23.9027 20.1818C23.7944 20.1571 23.6985 20.1413 23.6229 20.1319C23.5852 20.1272 23.5544 20.1244 23.5314 20.1228C23.5106 20.1214 23.4999 20.1212 23.4983 20.1212C23.498 20.1212 23.498 20.1212 23.4983 20.1212L21.7347 20.1404L21.7529 22.8521L23.7718 22.83ZM27.4121 28.6444C27.4312 28.3348 27.387 28.0246 27.2822 27.7327C27.1774 27.4408 27.0141 27.1733 26.8025 26.9466C26.5908 26.7199 26.3351 26.5387 26.0511 26.4141C25.767 26.2896 25.4605 26.2242 25.1504 26.2221L20.8655 26.2605L20.9328 31.1718L25.0673 31.119C25.1749 31.1158 25.2816 31.0988 25.3848 31.0683C26.0901 30.8835 27.4322 30.1901 27.4121 28.6444ZM25.0434 30.1392C25.0651 30.1382 25.0867 30.1345 25.1075 30.1284L25.1219 30.1242L25.1364 30.1204C25.3716 30.0587 25.7279 29.9036 26.005 29.6473C26.259 29.4123 26.4381 29.1062 26.4322 28.6571L26.4318 28.6206L26.434 28.5841C26.4449 28.4074 26.4197 28.2304 26.3599 28.0639C26.3001 27.8974 26.2069 27.7447 26.0862 27.6154C25.9654 27.4861 25.8195 27.3827 25.6575 27.3116C25.4975 27.2415 25.325 27.2042 25.1503 27.2021L21.8589 27.2317L21.8993 30.1798L25.0434 30.1392Z" fill="black"/>
<path d="M23.6849 5.18033C27.5089 4.88869 31.3296 5.73857 34.665 7.61661L34.092 8.57668C30.9548 6.81665 27.3639 6.02068 23.7699 6.29478C20.0129 6.58131 16.4365 8.02316 13.5313 10.4226C10.6261 12.822 8.53437 16.0614 7.54299 19.6966C6.55162 23.3318 6.70916 27.1847 7.99401 30.7268C9.27886 34.2689 11.6281 37.3267 14.7195 39.481C17.8109 41.6352 21.493 42.7802 25.2609 42.7591C29.0288 42.7379 32.6979 41.5516 35.7649 39.3628C38.6988 37.269 40.9443 34.3559 42.2235 30.9939L43.2788 31.3633C41.9231 34.943 39.5358 38.0447 36.4141 40.2725C33.1594 42.5953 29.2657 43.8543 25.2672 43.8767C21.2687 43.8992 17.3611 42.684 14.0805 40.398C10.7999 38.1119 8.30681 34.8668 6.94331 31.1079C5.57981 27.349 5.41262 23.2602 6.46469 19.4025C7.51675 15.5448 9.73653 12.1071 12.8196 9.5608C15.9026 7.01451 19.6979 5.4844 23.6849 5.18033Z" fill="black"/>
<path d="M43.6981 25.2142H36.0942V23.1356L38.5993 20.595C39.4876 19.683 40.1035 18.9842 40.4469 18.4986C40.8023 18.013 40.9799 17.4978 40.9799 16.953C40.9799 16.3963 40.8319 16.0054 40.5358 15.7804C40.2515 15.5554 39.8429 15.4429 39.3099 15.4429C38.5163 15.4429 37.6517 15.5139 36.7161 15.656L36.2897 15.7093L36.1653 13.8084C37.326 13.4531 38.5282 13.2754 39.7718 13.2754C42.2591 13.2754 43.5027 14.3947 43.5027 16.6332C43.5027 17.5096 43.3132 18.2677 42.9342 18.9072C42.5552 19.5468 41.8682 20.3226 40.8733 21.2346L38.8302 23.0823H43.6981V25.2142Z" fill="#FFDFB6"/>
<path fill-rule="evenodd" clip-rule="evenodd" d="M44.6781 26.1942H35.1143V22.7337L37.8973 19.9113C37.898 19.9105 37.8987 19.9098 37.8994 19.9091C38.7815 19.0033 39.3508 18.3513 39.6469 17.9327L39.6514 17.9263L39.6561 17.9199C39.902 17.5838 39.9999 17.268 39.9999 16.953C39.9999 16.7562 39.9731 16.644 39.9524 16.5895C39.9456 16.5714 39.9402 16.5613 39.9371 16.5564L39.9351 16.5548L39.9275 16.5488C39.8812 16.5122 39.7222 16.4229 39.3099 16.4229C38.5739 16.4229 37.7592 16.4889 36.8632 16.625L36.8505 16.6269L35.3796 16.8107L35.1368 13.0984L35.8785 12.8713C37.1344 12.4868 38.4334 12.2954 39.7718 12.2954C41.1425 12.2954 42.3535 12.6016 43.2256 13.3864C44.1173 14.1889 44.4827 15.3346 44.4827 16.6332C44.4827 17.6537 44.2608 18.5909 43.7773 19.4069C43.3246 20.1708 42.5536 21.0238 41.5355 21.957L41.5307 21.9615L41.375 22.1023H44.6781V26.1942ZM38.8302 23.0823L40.8733 21.2346C41.8682 20.3226 42.5552 19.5468 42.9342 18.9073C43.3132 18.2677 43.5027 17.5097 43.5027 16.6332C43.5027 14.3947 42.2591 13.2754 39.7718 13.2754C38.5282 13.2754 37.326 13.4531 36.1653 13.8084L36.2897 15.7094L36.7161 15.6561C36.9013 15.6279 37.0837 15.6026 37.2633 15.58C37.9912 15.4886 38.6734 15.4429 39.3099 15.4429C39.8429 15.4429 40.2515 15.5554 40.5358 15.7804C40.8319 16.0055 40.9799 16.3963 40.9799 16.953C40.9799 17.4978 40.8023 18.013 40.447 18.4986C40.1035 18.9842 39.4876 19.683 38.5993 20.595L36.0943 23.1356V25.2142H43.6981V23.0823H38.8302Z" fill="black"/>
<path fill-rule="evenodd" clip-rule="evenodd" d="M82.1852 21.0742H76.5829V18.8915L78.3533 17.4606C79.0971 16.8624 79.4689 16.4016 79.4689 16.0782C79.4689 15.8357 79.1698 15.7144 78.5716 15.7144L76.7284 15.8599L76.6314 13.4589C77.8117 13.3134 78.8303 13.2407 79.6872 13.2407C80.5441 13.2407 81.1747 13.4266 81.5789 13.7985C81.9831 14.1703 82.1852 14.712 82.1852 15.4234C82.1852 16.1186 82.0801 16.6522 81.8699 17.0241C81.6597 17.3798 81.3121 17.7355 80.8271 18.0912L79.9055 18.7702H82.1852V21.0742ZM160.209 30.0477C158.899 30.0477 158.002 29.6273 157.517 28.7866C157.048 27.9296 156.813 26.5068 156.813 24.5181C156.813 22.5132 157.056 21.0581 157.541 20.1527C158.026 19.2472 158.915 18.7945 160.209 18.7945C161.502 18.7945 162.391 19.2472 162.876 20.1527C163.361 21.0581 163.604 22.5132 163.604 24.5181C163.604 26.5068 163.361 27.9296 162.876 28.7866C162.407 29.6273 161.518 30.0477 160.209 30.0477ZM160.209 32.958C162.715 32.958 164.477 32.2789 165.496 30.9208C166.53 29.5465 167.048 27.4042 167.048 24.4939C167.048 21.5836 166.53 19.4251 165.496 18.0184C164.477 16.5956 162.715 15.8842 160.209 15.8842C157.703 15.8842 155.932 16.5956 154.897 18.0184C153.879 19.4251 153.369 21.5836 153.369 24.4939C153.369 27.4042 153.879 29.5465 154.897 30.9208C155.932 32.2789 157.703 32.958 160.209 32.958ZM173.022 27.1374V32.6669H169.675V16.1752H176.078C179.958 16.1752 181.899 17.9861 181.899 21.6078C181.899 23.7582 181.09 25.3427 179.473 26.3613L181.826 32.6669H178.164L176.248 27.1374H173.022ZM176.127 24.2756C176.919 24.2756 177.509 24.033 177.897 23.548C178.285 23.0629 178.479 22.4243 178.479 21.632C178.479 20.8398 178.269 20.2092 177.849 19.7404C177.444 19.2715 176.854 19.037 176.078 19.037H173.022V24.2756H176.127ZM187.819 32.6669H184.472V16.1752H187.819V23.4267L190.05 23.1842L192.767 16.1752H196.574L192.985 24.4453L196.671 32.6669H192.815L190.05 26.0945L187.819 26.337V32.6669ZM130.458 16.1752H133.975L136.012 29.8051H136.376L139.335 16.1752H143.215L146.174 29.8051H146.538L148.575 16.1752H152.092L148.939 32.6669H143.87L141.275 20.1284L138.68 32.6669H133.611L130.458 16.1752ZM117.79 16.1752V19.134H122.204V32.6669H125.55V19.134H129.916V16.1752H117.79ZM106.083 32.6669V16.1752H116.754V19.0855H109.429V22.9417H115.299V25.8035H109.429V29.7566H116.754V32.6669H106.083ZM89.5095 16.1752V32.6669H92.8563V19.0855H93.0988L97.2218 32.6669H102.727V16.1752H99.3802V29.7566H99.1377L95.1603 16.1752H89.5095ZM69.8073 16.1752H63.3319V32.6669H69.9043C71.602 32.6669 72.9197 32.2789 73.8575 31.5028C74.7953 30.7267 75.2642 29.5384 75.2642 27.9377C75.2642 26.9029 75.0863 26.0945 74.7306 25.5125C74.3911 24.9304 73.8575 24.4858 73.1299 24.1786C73.7928 23.7582 74.2617 23.2812 74.5366 22.7477C74.8114 22.1979 74.9489 21.4623 74.9489 20.5407C74.9489 19.0047 74.5204 17.8972 73.6635 17.2181C72.8066 16.5229 71.5212 16.1752 69.8073 16.1752ZM66.6788 25.7792H69.7346C71.1574 25.7792 71.8688 26.4421 71.8688 27.7679C71.8688 28.544 71.6909 29.0776 71.3352 29.3686C70.9957 29.6596 70.4622 29.8051 69.7346 29.8051H66.6788V25.7792ZM66.6788 19.037H69.6376C70.9149 19.037 71.5535 19.6918 71.5535 21.0015C71.5535 22.3111 70.9229 22.9659 69.6618 22.9659H66.6788V19.037Z" fill="black"/>
</svg>
