<svg width="402" height="400" viewBox="0 0 402 400" fill="none" xmlns="http://www.w3.org/2000/svg">
<mask id="mask0_675_192" style="mask-type:alpha" maskUnits="userSpaceOnUse" x="1" y="0" width="400" height="400">
<path d="M1 0H401V400H1V0Z" fill="#D9D9D9"/>
</mask>
<g mask="url(#mask0_675_192)">
<path d="M34 227H89L79 235H18L34 227Z" fill="#FFB852"/>
<path d="M201 330.5H325.5L349.5 366.5H201V330.5Z" fill="#EDEDED"/>
<path d="M-23.5 366.5H52.5L10.5 430.5H-23.5V366.5Z" fill="#FFB852"/>
<g clip-path="url(#clip0_675_192)">
<path d="M-177.02 201.56H579.37" stroke="black" stroke-width="0.5" stroke-miterlimit="10"/>
<path d="M-177.02 204.67H579.37" stroke="black" stroke-width="0.5" stroke-miterlimit="10"/>
<path d="M-177.02 208.79H579.37" stroke="black" stroke-width="0.5" stroke-miterlimit="10"/>
<path d="M-177.02 213.87H579.37" stroke="black" stroke-width="0.5" stroke-miterlimit="10"/>
<path d="M-177.02 220H579.37" stroke="black" stroke-width="0.5" stroke-miterlimit="10"/>
<path d="M-177.02 227.17H579.37" stroke="black" stroke-width="0.5" stroke-miterlimit="10"/>
<path d="M-177.02 235.28H579.37" stroke="black" stroke-width="0.5" stroke-miterlimit="10"/>
<path d="M-177.02 244.47H579.37" stroke="black" stroke-width="0.5" stroke-miterlimit="10"/>
<path d="M-177.02 254.65H579.37" stroke="black" stroke-width="0.5" stroke-miterlimit="10"/>
<path d="M-177.02 269H579.37" stroke="black" stroke-width="0.5" stroke-miterlimit="10"/>
<path d="M-177.02 285.63H579.37" stroke="black" stroke-width="0.5" stroke-miterlimit="10"/>
<path d="M-177.02 305.56H579.37" stroke="black" stroke-width="0.5" stroke-miterlimit="10"/>
<path d="M-177.02 330.47H579.37" stroke="black" stroke-width="0.5" stroke-miterlimit="10"/>
<path d="M-177.02 366.59H579.37" stroke="black" stroke-width="0.5" stroke-miterlimit="10"/>
<path d="M201.17 201.6V435.56" stroke="black" stroke-width="0.5" stroke-miterlimit="10"/>
<path d="M161.831 201.6L6.38086 436.88" stroke="black" stroke-width="0.5" stroke-miterlimit="10"/>
<path d="M123.29 201.6L-179.57 428.95" stroke="black" stroke-width="0.5" stroke-miterlimit="10"/>
<path d="M84.0995 201.6L-206.98 348.36" stroke="black" stroke-width="0.5" stroke-miterlimit="10"/>
<path d="M44.1095 201.6L-206.98 298.41" stroke="black" stroke-width="0.5" stroke-miterlimit="10"/>
<path d="M6.38031 201.6L-222.93 271.73" stroke="black" stroke-width="0.5" stroke-miterlimit="10"/>
<path d="M240.52 201.6L395.97 436.88" stroke="black" stroke-width="0.5" stroke-miterlimit="10"/>
<path d="M279.051 201.6L581.921 428.95" stroke="black" stroke-width="0.5" stroke-miterlimit="10"/>
<path d="M318.24 201.6L609.33 348.36" stroke="black" stroke-width="0.5" stroke-miterlimit="10"/>
<path d="M358.23 201.6L609.331 298.41" stroke="black" stroke-width="0.5" stroke-miterlimit="10"/>
<path d="M395.971 201.6L625.271 271.73" stroke="black" stroke-width="0.5" stroke-miterlimit="10"/>
</g>
<g clip-path="url(#clip1_675_192)">
<path d="M54.5766 225.345L110.61 348.844L35.5399 350.484L-50.6562 315.626L54.5766 225.345Z" fill="white"/>
<path d="M20.7053 309.686L54.7035 225.618L-51 315.868L20.7053 309.686Z" fill="#FFF0DA"/>
</g>
<g clip-path="url(#clip2_675_192)">
<path d="M-50.6562 315.626L54.5766 225.345M-50.6562 315.626L20.6074 309.589L110.61 348.844M-50.6562 315.626L35.4452 350.222L110.61 348.844M54.5766 225.345L110.61 348.844M54.5766 225.345L20.6074 309.596" stroke="black" stroke-width="0.6" stroke-linecap="round" stroke-linejoin="round"/>
</g>
<mask id="mask1_675_192" style="mask-type:alpha" maskUnits="userSpaceOnUse" x="1" y="93" width="68" height="71">
<rect x="1" y="93" width="68" height="71" fill="#D9D9D9"/>
</mask>
<g mask="url(#mask1_675_192)">
</g>
<g clip-path="url(#clip3_675_192)">
<path d="M-2.67121 97.5442L7.07462 99.0987L16.6936 101.24L25.9013 103.904L34.435 107.004L42.0628 110.446L43.2152 111.088L48.5981 114.113L49.9805 117.375L50.024 121.482L48.7032 125.868M-2.67121 97.5442L-12.2558 96.6201M-2.67121 97.5442L-1.874 96.6147M48.7032 125.868L46.1992 129.916L42.8709 133.043L39.2002 134.823M48.7032 125.868L54.2583 129.706L58.4255 133.536M48.7032 125.868L41.8309 122.14M39.2002 134.823L33.3824 131.815L26.6369 128.981L19.1305 126.405L11.0625 124.162L2.65375 122.321L-5.86184 120.938L-14.2271 120.049M39.2002 134.823L35.6961 135.033L32.1739 133.221L30.3621 132.29M39.2002 134.823L43.9671 137.921L47.9911 136.428L51.6021 133.554M-1.874 96.6147L-10.8335 95.7559M-1.874 96.6147L7.22862 98.0642L16.2117 100.066L16.7045 100.209L24.8179 102.565L25.7673 102.911L32.8008 105.471L34.2086 106.1L39.9575 108.698L41.8237 109.749L46.096 112.155L48.6054 114.119L49.9642 115.094L53.905 117.918L55.4378 119.393L57.8801 121.748L59.614 125.22M-10.8335 95.7559L-19.3908 95.5059M-10.8335 95.7559L-12.2558 96.6201M-19.3908 95.5059L-27.3139 95.8682M-19.3908 95.5059L-21.4037 96.3484M-27.3139 95.8682L-29.3594 96.1328L-34.4 96.7995M-27.3139 95.8682L-29.8505 96.727L-31.9794 99.2346L-33.3726 103.081M-34.4 96.7995L-37.3985 97.7054M-34.4 96.7995L-37.163 97.4699L-39.0853 97.9355L-40.4823 98.2743L-43.8523 99.2763L-46.5338 101.847M-37.3985 97.7054L-43.8523 99.269L-49.0903 101.345M-37.3985 97.7054L-39.83 100.242L-41.3447 104.06M-37.3985 97.7054L-29.8577 96.7216L-21.4037 96.3484M-49.0903 101.345L-53.031 103.849L-56.0205 106.524M-49.0903 101.345L-51.9584 103.958M-56.0205 106.524L-57.7309 110.272L-60.4106 113.184M-56.0205 106.524L-51.9584 103.958M-56.0205 106.524L-58.6839 109.457L-60.4106 113.184M-60.4106 113.184L-61.6788 116.373L-61.8184 120.476M-60.4106 113.184L-60.5664 117.393L-59.1169 121.5L-60.3544 124.408M-61.8184 120.476L-60.3544 124.408M-61.8184 120.476L-61.7169 123.752L-60.9396 125.789L-60.2819 127.508M-61.8184 120.476L-60.5664 117.396L-57.9175 114.588L-57.7363 110.276L-53.6361 107.739L-48.1463 105.641L-41.3447 104.06M-60.3544 124.408L-57.47 127.626M-60.3544 124.408L-60.2819 127.508M-57.47 127.626L-53.5727 129.681L-49.199 130.293M-57.47 127.626L-56.2651 124.937L-53.7883 122.502M-57.47 127.626L-57.4482 130.503M-49.199 130.293L-44.9466 129.374L-43.8468 127.305L-41.7741 125.45L-40.0184 124.531L-39.4006 124.207L-39.1995 124.102L-39.0745 124.037L-38.8299 123.908L-38.7411 123.861L-37.8714 123.582L-37.8279 123.567L-37.1557 123.352L-36.8477 123.252L-36.4636 123.129L-36.0252 122.986L-35.6809 122.875L-34.7895 122.589L-32.5646 122.165L-29.9863 121.672L-27.0004 121.368L-26.4134 121.335L-20.2822 121.228L-13.0004 121.576M-49.199 130.293L-48.0485 128.044M-49.199 130.293L-49.2932 132.708L-48.3873 135.245M39.9955 138.848L40.0336 138.912L40.2619 139.841L40.9703 142.74L43.4362 146.183L47.0599 148.596L51.3521 149.636L55.7168 149.156L59.5542 147.221L62.3336 144.103L62.9732 142.269L63.6816 140.238L63.8193 136.841L62.551 133.183L59.8224 129.342L55.6298 125.401L50.024 121.471L43.0956 117.655L34.9895 114.068L25.9122 110.819L16.1102 108.017L5.86794 105.755L-4.50659 104.09L-14.6999 103.081L-24.4132 102.753M-24.4132 102.753L-33.3726 103.081M-24.4132 102.753L-23.163 98.8686L-21.4037 96.3484M-24.4132 102.753L-24.9694 107.446L-24.7447 112.28L-23.77 116.55M-33.3726 103.081L-41.3447 104.06M-33.3726 103.081L-33.8274 107.725L-33.2839 112.504L-31.8036 116.731L-29.6167 119.812L-27.0095 121.361L-26.4225 121.328M-41.3447 104.06L-41.7071 108.638L-40.8682 113.329L-38.944 117.462L-36.2263 120.457L-33.0936 121.906L-29.9882 121.66M-15.8486 154.903L-15.1239 155.012L-8.28788 156.564L-7.71534 155.106L-6.93625 152.419L-6.05752 148.868L-5.20415 144.954L-4.50116 141.238L-4.04458 138.251L-3.89601 136.397M-4.07175 135.91L-3.86339 135.95L2.22797 137.109L8.5422 137.984L14.7713 138.528M51.6021 133.554L54.2746 129.701L55.6334 125.412L55.4976 121.295L53.9013 117.922L51.0894 115.748L49.6508 114.711L48.4985 113.885L46.0887 112.157M51.6021 133.554L55.6552 137.18L58.3276 140.722L59.614 144.09L59.5542 147.215L58.2171 150.042M51.6021 133.554L46.2047 129.92L39.5589 126.385L31.8061 123.046M-30.3288 126.637L-29.6493 127.032L-28.0513 127.903L-25.2502 129.353L-20.4018 131.447L-15.1656 133.335M-15.1656 133.335L-9.63769 135.004M-15.1656 133.335L-14.6528 135.375L-14.7688 138.472L-15.5062 142.195L-16.7636 146.021L-18.3616 149.404L-20.072 151.863L-21.6519 153.068L-22.8876 152.886M-15.1656 133.335L-16.2237 132.61M-9.63769 135.004L-3.90144 136.397M-9.63769 135.004L-9.4402 136.93L-9.72285 139.965L-10.4476 143.682L-11.5039 147.554L-12.7468 151.024L-13.997 153.606L-15.084 154.947L-15.8523 154.89L-18.6244 154.1L-21.8114 153.194L-22.8894 152.886L-28.1691 151.095L-29.5841 150.616L-34.1554 148.781L-35.8204 148.112L-39.676 146.277L-41.4878 145.413L-44.6332 143.61L-46.474 142.554M-9.63769 135.004L-10.2591 134.408M41.8309 122.14L33.8009 118.643L24.8124 115.463L15.1101 112.718M41.8309 122.14L39.5535 126.381L36.5947 129.758L33.3806 131.809L30.3004 132.282L29.4561 131.893M41.8309 122.14L43.0992 117.655L43.1735 113.564L42.0665 110.437L39.9539 108.691M15.1101 112.718L4.97833 110.473L-5.2893 108.823M15.1101 112.718L13.8074 117.391M15.1101 112.718L16.1102 108.031L16.6538 104.02L16.6864 101.248L16.2044 100.073M-5.2893 108.823L-15.3631 107.803M-5.2893 108.823L-4.50659 104.099L-3.59162 100.157L-2.67121 97.5532M-5.2893 108.823L-5.81473 113.657L-6.01403 117.891M-15.3631 107.803L-24.9658 107.44L-33.8238 107.727L-41.7071 108.633L-48.4289 110.124L-53.8644 112.131L-57.9175 114.584L-56.5405 118.862L-53.7883 122.502M-15.3631 107.803L-14.6981 103.081L-13.611 99.1712L-12.2558 96.6201M-15.3631 107.803L-15.5026 112.655L-15.1004 116.938L-14.2216 120.045M36.8846 136.23L37.2905 136.491L37.5188 136.547L38.1656 136.874L40.088 137.839L40.6043 138.274L43.4489 140.677M43.4489 140.677L47.5925 141.019M43.4489 140.677L45.7354 143.458L50.0331 144.052L54.4358 143.103L58.3276 140.729L61.1613 137.256L62.5474 133.179L62.301 129.066L59.614 125.22M43.4489 140.677L40.6804 139.209L40.0245 138.872L39.9955 138.845L39.9684 138.821L39.664 138.566L38.9392 137.959L38.8613 137.894L38.6041 137.678L37.9935 137.165L37.8467 137.04L37.3829 136.651L37.2923 136.495L36.8865 136.234L35.0493 135.053L32.8461 133.636L30.3095 132.286L29.4652 131.896L24.2109 129.699L17.3586 127.354M47.5925 141.019L51.8612 139.805L55.6552 137.187L58.4381 133.527M47.5925 141.019L50.0331 144.047L51.2796 146.945L51.3521 149.638L50.3012 152.08L48.1977 154.231M47.5925 141.019L43.9689 137.915L40.0898 137.839L38.2779 136.676L37.767 136.348L35.6943 135.013L32.8388 133.632M-48.3818 135.234L-44.3016 133.944M-48.3818 135.234L-52.5599 135.076M-48.3818 135.234L-46.5211 137.819M-44.3016 133.944L-40.8827 131.38M-44.3016 133.944L-45.0879 131.603L-44.9466 129.371L-41.399 127.064L-40.3319 125.109L-39.5329 124.397L-39.2013 124.098M-44.3016 133.944L-42.6365 136.341M-40.8827 131.38L-38.5943 127.912L-39.2357 125.763L-38.8299 123.914M-40.8827 131.38L-41.5766 129.173L-39.2357 125.754L-39.0672 123.964L-38.8226 123.866L-38.7411 123.857M-40.8827 131.38L-39.3644 133.648L-37.0815 135.926L-34.0974 138.173M-36.9383 141.126L-34.0974 138.173M-34.0974 138.173L-32.1388 134.549L-31.3343 130.744L-31.7837 127.302L-33.4143 124.682M-34.0974 138.173L-30.4918 140.338L-26.3446 142.392L-21.7407 144.298M-42.6365 136.341L-40.1579 138.745L-36.9383 141.111M-42.6365 136.341L-46.5211 137.819M-42.6365 136.341L-39.3644 133.654L-37.1612 130.134L-36.3241 126.273M-35.6809 122.864L-33.4125 124.676L-30.3324 126.631L-29.653 127.026L-27.1255 128.295L-25.4042 129.039L-21.882 130.561L-20.5594 131.039L-16.2273 132.603L-15.2815 132.886L-10.2573 134.388L-9.67937 134.527L-4.06813 135.91L-3.89601 136.397M-3.89601 136.397L1.95801 137.5M1.95801 137.5L7.81565 138.312L13.5791 138.809L19.1704 138.99M1.95801 137.5L2.24247 137.109M1.95801 137.5L1.46701 139.289L0.82562 142.251L0.135314 145.969L-0.509697 149.922L-1.01882 153.546L-1.3214 156.311M19.1704 138.99L24.4863 138.83L27.8998 138.488L29.4942 138.28L30.5324 138.129M19.1704 138.99L17.6611 140.702L12.4068 140.53L6.97135 140.055M19.1704 138.99L20.8119 138.702M-53.7883 122.502L-50.0415 125.008M-53.7883 122.502L-50.0415 120.404M-50.0415 125.008L-45.8435 126.03L-42.5822 124.301L-39.0545 123.895M-50.0415 125.008L-46.5301 123.102L-41.8955 121.567L-36.2136 120.457L-29.5968 119.815L-22.2009 119.672L-14.2107 120.045L-12.9896 121.573L-5.37989 122.386L2.36024 123.645L10.0116 125.318L17.3586 127.354M-50.0415 125.008L-52.3968 127.222M58.2171 150.042L55.686 152.53L53.0099 154.091L52.0823 154.635L48.821 156.084L44.545 157.679L39.4719 158.885L33.7103 159.701L27.387 160.121L20.6198 160.152L15.0938 159.88L13.5356 159.804L12.4666 159.699L9.23613 159.384L6.20856 159.087L5.54725 158.931L2.92009 158.612L-1.1982 158.018L-1.39206 157.867L-8.30237 156.555L-8.59408 156.612L-15.1384 155.003L-21.661 153.075L-27.9045 150.955L-33.7024 148.623M58.2171 150.042L59.5271 148.592L60.9004 147.076L62.3336 144.097L62.4459 140.803L61.1613 137.254L58.4436 133.52L59.8242 129.336L59.614 125.22M58.2171 150.042L54.5119 151.794L52.1837 154.113L48.1977 154.227L45.1321 156.057L41.2004 157.541L37.9228 155.936L33.6324 156.992L28.7296 157.717L23.3195 158.095L17.5053 158.137L11.3904 157.845L5.0816 157.233L-1.3214 156.311M31.8061 123.046L23.1455 120.018L13.8074 117.391M31.8061 123.046L29.2967 126.669M31.8061 123.046L33.7991 118.639L34.9876 114.072L35.2069 110M13.8074 117.391L4.05974 115.255M13.8074 117.391L12.3887 121.393L11.0625 124.153L10.008 125.314M4.05974 115.255L-5.80748 113.66L-15.5026 112.658L-24.7429 112.276L-33.273 112.508L-40.87 113.332L-47.3582 114.711M4.05974 115.255L3.24622 119.393M4.05974 115.255L4.97833 110.477L5.86794 105.766L6.60173 101.78L7.07462 99.1023L7.22862 98.0678M-47.3582 114.711L-52.6125 116.579L-56.5441 118.869L-59.1205 121.5M-47.3582 114.711L-48.4326 110.129L-48.1409 105.629L-46.5338 101.847M-47.3582 114.711L-45.0734 118.697M37.2198 136.511L33.9078 137.495M33.9078 137.495L30.536 138.124L29.4978 138.274L26.5663 138.522L20.8155 138.703L14.7749 138.522L13.5791 138.821L12.4032 140.541L11.4139 143.469L10.7526 147.206L10.5171 151.225L10.7418 154.934M33.9078 137.495L31.4763 139.341M10.7418 154.934L11.3904 157.833L12.367 159.523L18.9892 159.86L25.2926 159.829L31.1719 159.434L36.5114 158.672L41.204 157.545L44.5577 157.679M10.7418 154.934L16.391 155.198L21.7559 155.142L26.742 154.767L31.248 154.077L35.1797 153.071L38.441 151.761L40.9558 150.161L42.6408 148.293L43.429 146.188L43.2677 143.882M10.7418 154.934L4.90586 154.39M37.9917 137.162L36.2451 140.077L35.6272 143.976L36.3954 148.056L38.4482 151.752L41.503 154.546L45.1266 156.055L48.8246 156.079L52.1801 154.111L55.6878 152.524M-12.2558 96.6201L-21.4037 96.3484M17.6575 140.698L16.4925 143.632L15.8421 147.386L15.8058 151.432L16.3874 155.191L17.4999 158.134L18.9801 159.857L20.6108 160.148M-58.9774 130.719L-56.2597 133.493L-53.9641 136.544M-53.9641 136.544L-50.4799 137.886M-53.9641 136.544L-50.6702 139.573L-48.9326 140.805L-46.474 142.546L-43.5877 143.452M-53.9641 136.544L-56.5006 133.987L-58.9647 130.726L-60.2819 127.508M-50.4799 137.886L-46.5211 137.819M-50.4799 137.886L-52.5599 135.076M-50.4799 137.886L-47.4578 140.696M-46.5211 137.819L-43.7852 140.408M-36.3241 126.273L-36.8477 123.249M-36.3241 126.273L-37.7446 124.02L-37.8279 123.564M-36.3241 126.273L-34.168 128.528M31.4763 139.341L29.8276 142.383L29.2043 146.214L29.6989 150.303L31.2498 154.073L33.6324 156.996L36.5078 158.672L39.4774 158.885M31.4763 139.341L27.2892 140.108L22.6545 140.561L17.6629 140.702M31.4763 139.341L35.1235 138.265M35.1235 138.265L37.8413 137.035M35.1235 138.265L37.401 136.645M35.1235 138.265L33.3389 141.372L32.7192 145.235L33.3624 149.324L35.1743 153.066L37.9156 155.938M54.5101 151.796L55.7132 149.156V146.241L54.4449 143.101L51.8703 139.803L48.0002 136.421L42.8818 133.042L36.6056 129.757L29.2967 126.669M29.2967 126.669L21.1634 123.845M29.2967 126.669L26.6369 128.959L24.2 129.684M21.1634 123.845L12.3887 121.397L3.24622 119.393M21.1634 123.845L19.1341 126.399L17.3586 127.354M21.1634 123.845L23.1564 120.022L24.8233 115.463L25.9231 110.827L26.2999 106.784L25.9122 103.904L24.8251 102.559M3.24622 119.393L-6.01403 117.891M3.24622 119.393L2.65375 122.317L2.35662 123.645M-6.01403 117.891L-15.1076 116.938L-23.77 116.55M-6.01403 117.891L-5.86365 120.935L-5.39076 122.384M-23.77 116.55L-31.7873 116.731L-38.9404 117.456L-45.0734 118.697M-23.77 116.55L-22.2045 119.672L-20.2822 121.234M-45.0734 118.697L-50.0415 120.404M-45.0734 118.697L-41.9064 121.562L-38.3135 122.908L-36.1393 122.495L-33.0828 121.91L-29.4827 121.569L-27.0312 121.343M-50.0415 120.404L-52.6088 116.572L-53.8626 112.137L-53.6307 107.727L-51.9584 103.958M-50.0415 120.404L-46.5356 123.102L-42.584 124.301L-38.9893 123.134L-38.636 123.018L-38.3135 122.913L-35.9092 122.683L-34.7895 122.578M-41.4824 145.413L-38.964 146.108L-36.0197 145.413L-33.0556 143.398L-30.4882 140.338L-28.6764 136.66L-27.8882 132.886L-28.218 129.543L-29.604 127.09M29.4471 138.323L27.3019 140.102L25.8053 143.094L25.1748 146.898L25.5064 150.98L26.7565 154.762L28.7495 157.715L31.1882 159.433L33.7357 159.699M37.9228 155.939L41.503 154.552L44.2769 152.85L46.154 150.857L47.0599 148.6L46.9348 146.117L43.2677 143.882M43.2677 143.882L42.1226 141.418M43.2677 143.882L41.4341 141.399L40.9268 140.716L40.7891 140.535L40.0445 138.946L39.9901 138.83M-41.7741 125.446L-45.8525 126.03L-48.0485 128.044M-48.0485 128.044L-52.3968 127.222M-48.0485 128.044L-43.8378 127.302L-41.2831 125.705L-40.6 125.28L-40.3264 125.109M-50.6702 139.58L-47.4578 140.696M-47.4578 140.696L-43.7852 140.408M-47.4578 140.696L-43.5877 143.452M-43.7852 140.408L-40.1616 138.745L-37.0815 135.931L-34.9888 132.358L-34.168 128.528M-43.7852 140.408L-40.2576 142.956M-34.168 128.528L-34.7206 124.973L-36.0252 122.98M-34.168 128.528L-31.3362 130.746L-27.8937 132.886L-23.933 134.908L-19.5285 136.783L-14.7615 138.479L-9.72103 139.968L-4.49391 141.236L0.832869 142.249L6.16689 142.998L11.4212 143.465L16.5052 143.646L21.3283 143.528L25.7999 143.11L29.8348 142.394L33.3461 141.385L36.2451 140.093L38.4682 138.539L38.8595 137.901M35.2069 110L34.435 106.998L32.8044 105.462M35.2069 110L43.1699 113.561L49.9805 117.366L55.4939 121.286L59.614 125.22M35.2069 110L26.2891 106.784L16.661 104.021L6.60173 101.777L-3.59162 100.146L-13.611 99.1694L-23.163 98.8668L-31.9794 99.2292L-39.83 100.237L-46.5338 101.847M40.7946 140.542L40.9757 142.733L40.2709 144.737L42.6535 148.284L46.1594 150.85L50.3067 152.075L54.5192 151.792M-21.7407 144.298L-16.7636 146.029L-11.5093 147.558L-6.06114 148.859L-0.513324 149.913L5.04356 150.703L10.5135 151.214L15.8076 151.435L20.83 151.359L25.49 150.982L29.6953 150.303L33.3588 149.326L36.3918 148.058L38.7164 146.523L40.2619 144.739L39.3215 140.702L39.6549 138.559M-21.7407 144.298L-23.6812 147.581L-25.8336 149.904M-21.7407 144.298L-20.2912 140.519L-19.5375 136.783L-19.581 133.616L-20.4036 131.454L-21.8802 130.572M-35.8186 148.112L-33.7024 148.623M-33.7024 148.623L-31.1858 147.741M-33.7024 148.623L-38.9694 146.108L-43.5877 143.452M-31.1858 147.741L-28.6112 145.567M-31.1858 147.741L-36.0252 145.413L-40.2576 142.956M-31.1858 147.741L-25.8336 149.904M-28.6112 145.567L-26.3464 142.392L-24.7157 138.662L-23.9439 134.908L-24.1323 131.659M-28.6112 145.567L-23.6848 147.589L-18.3653 149.419L-12.7486 151.035L-6.93625 152.417L-1.01882 153.541L4.90586 154.39M-28.6112 145.567L-33.061 143.392L-36.9383 141.106L-40.2576 142.956M-24.1323 131.659L-25.2502 129.36L-27.1218 128.3M-24.1323 131.659L-28.2325 129.543L-31.7873 127.302L-34.7225 124.973L-36.4654 123.125M-24.1323 131.659L-19.5792 133.616L-14.6528 135.382L-9.44564 136.933L-4.04458 138.241L1.45795 139.289L6.97135 140.055M26.5663 138.517L24.4899 138.819L22.6545 140.555L21.321 143.519L20.6815 147.295L20.8336 151.361L21.7577 155.14L23.3195 158.097L25.2889 159.826L27.3925 160.117M39.9629 138.814L39.3252 140.702L37.8522 142.459L38.72 146.523L40.9631 150.147L44.2769 152.839L48.1977 154.22M4.90586 154.39L5.04718 150.701L5.48564 146.715L6.15964 142.99L6.97135 140.055M4.90586 154.39L5.08704 157.24L5.56718 158.938L6.22849 159.094M-40.2576 142.956L-43.5877 143.452M-60.2819 127.508L-57.4537 130.503M-52.3968 127.222L-53.5764 129.681L-53.6126 132.32L-52.5599 135.076M-52.3968 127.222L-56.2579 124.935L-59.1133 121.493M-52.5599 135.076L-56.256 133.498L-57.4537 130.503M-46.5338 101.847L-51.9584 103.958M-57.4537 130.503L-53.6144 132.315L-49.2932 132.699L-45.0879 131.597L-41.5766 129.168L-41.3954 127.059L-39.792 124.769L-39.5292 124.392M-25.8336 149.904L-20.072 151.87L-13.9988 153.609L-7.71534 155.097L-1.3214 156.311M-25.8336 149.904L-27.8955 150.955L-29.5823 150.616M-1.3214 156.311L-1.37938 157.923L-1.1837 158.018M6.97135 140.055L7.8066 138.312L8.54582 137.975M-8.57958 156.612L-3.83803 157.518L-1.37938 157.929L5.54362 158.873L12.367 159.541L13.5302 159.809M-37.8714 123.587L-37.7446 124.029L-38.5943 127.927L-37.1612 130.143L-34.987 132.368L-32.1388 134.556L-28.6963 136.669L-24.7103 138.671L-20.2876 140.528L-15.5044 142.211L-10.4476 143.695L-5.19328 144.954L0.146184 145.969L5.49651 146.724L10.7635 147.205L15.8584 147.398L20.6923 147.302L25.173 146.909L29.2152 146.223L32.7301 145.246L35.6381 143.99L37.863 142.472L38.479 138.537L38.9483 137.964M40.0372 138.879L40.7311 139.714L42.1371 141.409L45.7427 143.452L46.9421 146.11L51.2905 146.94L55.7113 146.237L59.614 144.092L62.4459 140.805L63.8193 136.837L63.5602 132.741L62.3028 129.072L60.4801 125.486L59.5742 124.171L57.8837 121.741" stroke="black" stroke-width="0.3" stroke-linecap="round" stroke-linejoin="round"/>
</g>
</g>
<g clip-path="url(#clip4_675_192)">
<path d="M326.966 66.4829C300.356 66.4102 300.415 66.3519 300.483 92.9658C300.556 66.3563 300.615 66.4145 274 66.4829C300.611 66.5557 300.551 66.6153 300.483 40C300.407 66.6124 300.349 66.5528 326.966 66.4829Z" fill="black"/>
<path d="M326.966 66.4829C300.356 66.4102 300.415 66.3519 300.483 92.9658C300.556 66.3563 300.615 66.4145 274 66.4829C300.611 66.5557 300.551 66.6153 300.483 40C300.407 66.6124 300.349 66.5528 326.966 66.4829Z" stroke="black" stroke-width="1.01857" stroke-miterlimit="10"/>
</g>
<g clip-path="url(#clip5_675_192)">
<path d="M362.966 51.4829C336.356 51.4102 336.415 51.3519 336.483 77.9658C336.556 51.3563 336.615 51.4145 310 51.4829C336.611 51.5557 336.551 51.6153 336.483 25C336.407 51.6124 336.349 51.5528 362.966 51.4829Z" fill="black"/>
<path d="M362.966 51.4829C336.356 51.4102 336.415 51.3519 336.483 77.9658C336.556 51.3563 336.615 51.4145 310 51.4829C336.611 51.5557 336.551 51.6153 336.483 25C336.407 51.6124 336.349 51.5528 362.966 51.4829Z" stroke="black" stroke-width="1.01857" stroke-miterlimit="10"/>
</g>
<g clip-path="url(#clip6_675_192)">
<path d="M129.614 37.1647C129.614 37.0185 129.658 36.8786 129.671 36.7324C129.762 36.0134 129.804 35.2892 129.798 34.5645C129.798 34.3526 129.786 34.1407 129.76 33.9288C129.557 31.2634 128.621 28.706 127.056 26.5388C125.491 24.3717 123.358 22.6791 120.891 21.6478C118.425 20.6166 115.722 20.2869 113.08 20.695C110.438 21.1031 107.96 22.2332 105.92 23.9606C103.479 26.0296 101.785 28.8443 101.102 31.9708C101.063 32.1361 101.032 32.3014 101 32.473C100.958 33.1759 101.065 33.8797 101.311 34.5391C101.501 35.0747 101.606 35.6367 101.623 36.2047C101.496 36.7712 101.207 37.2883 100.79 37.6923C100.306 38.1963 99.9732 38.8264 99.8301 39.5105C99.8573 39.7426 99.924 39.9684 100.027 40.178C100.078 40.2734 100.142 40.3751 100.205 40.4768C100.406 40.7552 100.636 41.011 100.892 41.2397L101.559 41.7483C102.185 42.1812 102.769 42.6729 103.301 43.2168C103.384 43.3122 103.46 43.3948 103.53 43.4838C104.534 46.2874 107.128 48.0928 111.438 49.0019L111.903 49.1227C113.178 49.4288 114.489 49.5614 115.8 49.5169C117.783 49.4546 119.731 48.9805 121.521 48.1246L121.915 47.9275C122.522 47.6653 123.019 47.2 123.32 46.6116C123.794 45.8183 124.421 45.1269 125.164 44.5773L125.399 44.3929C125.984 43.9733 126.569 43.5029 126.671 42.8481C126.671 42.6129 126.709 42.3649 126.715 42.117C126.772 40.9854 126.829 39.8157 127.986 39.2689L128.069 39.2117L128.253 39.0719C128.936 38.6354 129.423 37.9521 129.614 37.1647ZM127.313 38.8366L127.046 39.0146C126.769 39.1003 126.507 39.229 126.27 39.3961C126.17 39.4663 126.079 39.5473 125.997 39.6377C125.405 40.3687 125.501 41.227 125.59 42.0598C125.59 42.3077 125.647 42.5684 125.66 42.8163C125.643 43.0408 125.578 43.259 125.468 43.4556C125.358 43.6522 125.206 43.8224 125.024 43.9542C124.98 43.9826 124.933 44.006 124.884 44.0242L124.515 44.3357C123.962 44.7998 123.454 45.3211 122.971 45.8169C122.583 46.2174 122.182 46.6307 121.756 47.0121C119.849 48.754 116.143 48.9193 113.352 48.5378L112.882 48.4616C109.665 47.883 106.632 47.1456 104.941 44.5582C104.782 44.3166 104.636 44.0623 104.496 43.8144C104.175 43.1789 103.744 42.6044 103.225 42.117C102.9 41.8482 102.56 41.5977 102.208 41.3668C101.716 41.0655 101.261 40.707 100.854 40.2988C100.797 40.2331 100.746 40.163 100.701 40.089C100.653 40.0191 100.613 39.9445 100.58 39.8665V39.7839C100.534 39.6843 100.51 39.5758 100.51 39.466C100.51 39.3562 100.534 39.2478 100.58 39.1481C100.807 38.7627 101.085 38.4098 101.407 38.0992C101.972 37.6242 102.339 36.9554 102.437 36.2238C102.463 35.6155 102.359 35.0086 102.131 34.4438C101.873 33.8433 101.797 33.1797 101.915 32.5366C101.947 32.3776 101.979 32.2187 102.017 32.0598C102.754 28.8989 104.595 26.1047 107.208 24.1793C109.821 22.254 113.035 21.3238 116.272 21.5559C119.509 21.788 122.558 23.1672 124.869 25.4457C127.181 27.7241 128.604 30.7523 128.883 33.986C128.883 34.1937 128.896 34.4056 128.921 34.6218C128.957 35.3539 128.929 36.0877 128.838 36.815C128.838 36.9803 128.8 37.1138 128.775 37.241C128.475 37.9155 127.961 38.4721 127.313 38.8239V38.8366Z" fill="black"/>
<path d="M111.763 35.1557C112.36 35.1557 112.793 33.6045 112.729 31.7418C112.666 29.8791 112.132 28.3788 111.534 28.3979C110.936 28.417 110.51 29.9427 110.568 31.8117C110.625 33.6808 111.165 35.1747 111.763 35.1557Z" fill="black"/>
<path d="M118.386 34.8188C118.984 34.8188 119.416 33.2676 119.353 31.4049C119.289 29.5422 118.761 28.0419 118.164 28.061C117.566 28.08 117.134 29.6058 117.198 31.4748C117.261 33.3439 117.789 34.8378 118.386 34.8188Z" fill="black"/>
<path d="M125.895 34.5455C125.868 34.509 125.83 34.4823 125.787 34.4692C125.553 34.3606 125.305 34.2878 125.05 34.253C124.907 34.2338 124.761 34.2468 124.624 34.2912C124.312 34.4056 124.02 34.698 123.702 34.59C123.587 34.5518 123.498 34.4565 123.384 34.412C123.249 34.3827 123.108 34.3883 122.976 34.4284C122.844 34.4684 122.724 34.5415 122.627 34.6408C122.604 34.6566 122.583 34.6772 122.568 34.7013C122.553 34.7254 122.543 34.7524 122.538 34.7807C122.543 34.8212 122.561 34.8591 122.589 34.8888C122.663 34.9682 122.753 35.0316 122.852 35.0754C122.952 35.1191 123.059 35.1421 123.168 35.143C123.378 35.143 123.645 35.0286 123.657 35.3401C123.683 35.789 123.683 36.239 123.657 36.6879C123.587 37.5207 122.5 38.1055 121.839 38.4615C121.178 38.8175 120.669 39.0655 120.491 39.8538C120.306 40.5473 120.046 41.2187 119.716 41.8563C119.309 43.0134 117.643 43.0706 116.486 43.4266L116.188 43.4647C115.99 43.4647 115.793 43.4965 115.59 43.5029H115.145H114.706C114.268 43.4456 113.835 43.3694 113.435 43.274L113.225 43.2231C111.72 42.8869 110.333 42.1537 109.207 41.0998L109.048 40.979C108.572 40.6257 108.124 40.2368 107.707 39.8156L107.573 39.6567C107.447 39.5011 107.335 39.3352 107.236 39.1608C107.201 39.1036 107.169 39.0441 107.141 38.9828C106.594 37.9148 107.427 36.6561 106.868 35.6198C107.052 35.8741 107.313 35.7788 107.453 35.7851H107.593C107.748 35.7625 107.899 35.713 108.038 35.6389C108.182 35.5605 108.311 35.4572 108.419 35.3338V35.2448C108.298 35.133 108.161 35.0407 108.012 34.9714C107.87 34.9053 107.717 34.8644 107.561 34.8506C107.014 34.8506 106.505 35.3783 105.882 35.0477C105.758 34.9997 105.619 34.9997 105.495 35.0477C105.44 35.0617 105.388 35.0853 105.342 35.1176C105.272 35.2511 105.189 35.3401 105.189 35.4291C105.291 35.7788 105.825 35.8487 106.162 35.6643C106.368 36.5413 106.309 37.4598 105.99 38.3026C105.923 38.6769 105.993 39.063 106.188 39.3897L106.302 39.5677C106.372 39.6694 106.455 39.7648 106.531 39.8601L106.664 40.0064C107.44 40.5404 108.228 41.0744 108.966 41.6783L109.125 41.8055C109.716 42.4989 110.449 43.0581 111.273 43.4456L111.464 43.541C112.75 44.1631 114.18 44.4246 115.603 44.2975H116.035C116.251 44.2975 116.461 44.253 116.671 44.2212L116.995 44.1577C118.368 43.8462 120.46 43.4266 120.669 41.8373C120.816 40.7819 120.778 39.7266 121.757 39.0337L122.011 38.8557C122.761 38.3598 123.842 37.9784 124.287 37.1392C124.605 36.5035 124.471 35.8042 124.592 35.1367C124.839 35.1876 125.095 35.1876 125.342 35.1367C125.474 35.1136 125.597 35.0527 125.695 34.9612C125.793 34.8698 125.863 34.7519 125.895 34.6217C125.9 34.5966 125.9 34.5706 125.895 34.5455Z" fill="black"/>
<path d="M32.653 35.0285C33.2506 35.0285 33.7465 33.5282 33.7656 31.6592C33.7846 29.7902 33.3142 28.2644 32.7166 28.2644C32.119 28.2644 31.6231 29.7647 31.6041 31.6338C31.585 33.5028 32.0554 35.0222 32.653 35.0285Z" fill="black"/>
<path d="M39.2839 34.9778C39.8815 34.9778 40.3773 33.4711 40.3964 31.6021C40.4155 29.733 39.945 28.22 39.3475 28.2136C38.7499 28.2073 38.254 29.7203 38.2349 31.583C38.2159 33.4457 38.6863 34.9714 39.2839 34.9778Z" fill="black"/>
<path d="M36.0037 50C33.0358 50.0013 30.1342 49.1223 27.666 47.4742C25.1977 45.8261 23.2738 43.483 22.1374 40.7412C21.0011 37.9995 20.7034 34.9823 21.2821 32.0714C21.8608 29.1605 23.2899 26.4866 25.3885 24.388C27.4871 22.2894 30.161 20.8603 33.0719 20.2816C35.9828 19.7029 39 20.0006 41.7417 21.1369C44.4835 22.2733 46.8266 24.1972 48.4747 26.6655C50.1228 29.1337 51.0018 32.0353 51.0005 35.0032C50.9955 38.979 49.4138 42.7906 46.6025 45.602C43.7911 48.4133 39.9795 49.995 36.0037 50ZM36.0037 20.7565C33.1781 20.7553 30.4156 21.5924 28.066 23.162C25.7164 24.7316 23.8853 26.963 22.8046 29.5738C21.7238 32.1846 21.442 35.0574 21.9948 37.8284C22.5476 40.5994 23.9102 43.1441 25.91 45.1404C27.9098 47.1366 30.4569 48.4946 33.2289 49.0425C36.0009 49.5903 38.8732 49.3034 41.482 48.218C44.0909 47.1326 46.3191 45.2976 47.8845 42.9452C49.4498 40.5928 50.2821 37.8288 50.2758 35.0032C50.2724 31.2184 48.7679 27.5896 46.0923 24.9128C43.4166 22.236 39.7884 20.7298 36.0037 20.7247V20.7565Z" fill="black"/>
<path d="M25.3174 35.9886C25.2381 35.9917 25.1605 35.9656 25.0992 35.9154C25.0379 35.8651 24.9971 35.7941 24.9845 35.7158C24.972 35.6375 24.9886 35.5574 25.0312 35.4905C25.0738 35.4236 25.1394 35.3746 25.2156 35.3529C26.2151 35.0223 27.2864 34.9739 28.3116 35.213C28.3914 35.2419 28.4574 35.2999 28.4962 35.3753C28.5351 35.4508 28.5441 35.5381 28.5214 35.6199C28.5092 35.6608 28.4888 35.6988 28.4615 35.7317C28.4342 35.7646 28.4006 35.7916 28.3626 35.8112C28.3246 35.8308 28.2831 35.8425 28.2405 35.8457C28.1978 35.8489 28.155 35.8434 28.1146 35.8296C27.229 35.6471 26.3112 35.6975 25.4509 35.9759L25.3174 35.9886Z" fill="black"/>
<path d="M43.79 35.9886C43.7108 35.9917 43.6332 35.9656 43.5718 35.9154C43.5105 35.8651 43.4697 35.7941 43.4572 35.7158C43.4447 35.6375 43.4613 35.5574 43.5039 35.4905C43.5464 35.4236 43.6121 35.3746 43.6883 35.3529C44.6878 35.0223 45.7591 34.9739 46.7843 35.213C46.866 35.2392 46.9339 35.2968 46.9733 35.3731C47.0126 35.4493 47.0201 35.5381 46.9941 35.6199C46.9818 35.6608 46.9615 35.6988 46.9342 35.7317C46.9069 35.7646 46.8732 35.7916 46.8352 35.8112C46.7973 35.8308 46.7557 35.8425 46.7131 35.8457C46.6705 35.8489 46.6277 35.8434 46.5872 35.8296C45.692 35.6397 44.7625 35.6879 43.8917 35.9695L43.79 35.9886Z" fill="black"/>
<path d="M36.0096 44.7933C33.4642 44.7917 31.0235 43.7797 29.2236 41.9799C27.4238 40.18 26.4118 37.7393 26.4102 35.1938H27.1794C27.1477 36.373 27.3527 37.5465 27.782 38.6451C28.2114 39.7437 28.8565 40.7452 29.6793 41.5904C30.5021 42.4355 31.4859 43.1073 32.5726 43.566C33.6593 44.0247 34.8269 44.261 36.0065 44.261C37.186 44.261 38.3536 44.0247 39.4403 43.566C40.527 43.1073 41.5108 42.4355 42.3336 41.5904C43.1564 40.7452 43.8015 39.7437 44.2309 38.6451C44.6603 37.5465 44.8652 36.373 44.8336 35.1938H45.6028C45.6011 37.7382 44.5901 40.1779 42.7915 41.9776C40.993 43.7773 38.554 44.79 36.0096 44.7933Z" fill="black"/>
<path d="M75.4001 50C78.3686 50.0038 81.2714 49.1269 83.7413 47.4803C86.2112 45.8338 88.1372 43.4916 89.2755 40.7501C90.4138 38.0085 90.7132 34.991 90.136 32.0792C89.5587 29.1675 88.1307 26.4924 86.0325 24.3925C83.9344 22.2926 81.2606 20.8623 78.3493 20.2826C75.438 19.7028 72.4202 19.9997 69.6777 21.1357C66.9353 22.2717 64.5914 24.1956 62.9427 26.6642C61.2941 29.1327 60.4148 32.0348 60.416 35.0032C60.4194 38.9774 61.9987 42.788 64.8077 45.5993C67.6167 48.4107 71.426 49.9933 75.4001 50ZM72.0498 41.7864C71.4523 41.7864 70.9818 40.2607 71.0009 38.398C71.02 36.5353 71.5158 35.0223 72.1134 35.0286C72.711 35.035 73.1814 36.5289 73.1624 38.4361C73.1433 40.3433 72.6474 41.7928 72.0498 41.7864ZM78.6868 41.7355C78.0893 41.7355 77.6188 40.2098 77.6379 38.3408C77.657 36.4717 78.1528 34.965 78.7504 34.9714C79.348 34.9778 79.8121 36.4971 79.7994 38.3662C79.7866 40.2352 79.2781 41.7419 78.6868 41.7355ZM64.402 33.8589C64.482 33.8181 64.5693 33.7937 64.6588 33.7872C64.7483 33.7806 64.8383 33.792 64.9233 33.8207C65.1078 33.8744 65.2975 33.9085 65.4891 33.9224C65.7028 31.4512 66.8325 29.1491 68.6564 27.468C70.4803 25.787 72.8667 24.8483 75.3471 24.8364C77.8275 24.8244 80.2228 25.74 82.0628 27.4035C83.9028 29.0669 85.0546 31.358 85.2921 33.8271C85.6353 33.7572 85.8706 33.6872 85.8706 33.6872C86.0426 33.6341 86.2285 33.6494 86.3896 33.7299C86.5506 33.8105 86.6744 33.95 86.7352 34.1195C86.764 34.2047 86.7757 34.2947 86.7695 34.3843C86.7634 34.474 86.7395 34.5616 86.6993 34.642C86.6591 34.7224 86.6034 34.794 86.5353 34.8527C86.4673 34.9114 86.3883 34.9561 86.3029 34.9841C85.2313 35.339 84.082 35.3874 82.9844 35.124C82.8983 35.0965 82.8185 35.0524 82.7495 34.9941C82.6805 34.9357 82.6238 34.8643 82.5824 34.784C82.5411 34.7037 82.516 34.616 82.5086 34.526C82.5012 34.436 82.5117 34.3454 82.5394 34.2594C82.5639 34.1725 82.6066 34.0919 82.6647 34.0228C82.7228 33.9538 82.7949 33.8979 82.8763 33.8589C82.9563 33.8181 83.0436 33.7937 83.1331 33.7872C83.2226 33.7806 83.3125 33.792 83.3976 33.8207C83.5293 33.8578 83.663 33.8875 83.7981 33.9097C83.5789 31.8438 82.6068 29.9309 81.0672 28.536C79.5276 27.141 77.5284 26.3618 75.4509 26.3468C73.3734 26.3319 71.3632 27.0823 69.8037 28.455C68.2442 29.8276 67.2447 31.7264 66.9958 33.7889C67.131 33.7621 67.2647 33.7282 67.3963 33.6872C67.5684 33.6357 67.7536 33.6518 67.9142 33.7321C68.0749 33.8124 68.1989 33.951 68.2609 34.1195C68.3171 34.2923 68.3025 34.4804 68.2203 34.6425C68.138 34.8045 67.9949 34.9274 67.8222 34.9841C66.7507 35.339 65.6013 35.3874 64.5037 35.124C64.3317 35.0677 64.1881 34.947 64.1032 34.787C64.0224 34.6231 64.0065 34.4346 64.0587 34.2594C64.0867 34.1733 64.1315 34.0936 64.1904 34.0248C64.2493 33.9561 64.3212 33.8997 64.402 33.8589Z" fill="black"/>
</g>
<g clip-path="url(#clip7_675_192)">
<path d="M385.744 111.575L363.43 94.1338L335.987 101.572L331.883 129.785L352.145 149.79L378.562 139.274L385.744 111.575Z" fill="white"/>
<path d="M372.662 116.191L360.864 106.445L346.758 111.061L358.043 121.064L372.662 116.191Z" fill="#FFF0DA"/>
<path d="M341.629 139.531L343.937 125.681L333.678 116.191L331.883 129.784L341.629 139.531Z" fill="#FFB852"/>
<path d="M369.071 130.81L382.151 125.937L378.56 139.274L365.736 144.404L369.071 130.81Z" fill="black"/>
<path d="M355.018 135.94L358.09 121.008M355.018 135.94L369.005 130.734M355.018 135.94L352.157 149.845M355.018 135.94L344.027 125.697M352.157 149.845L365.774 144.346M352.157 149.845L341.63 139.482M365.774 144.346L369.005 130.734M365.774 144.346L378.509 139.203L382.054 125.87M369.005 130.734L372.465 116.151L360.884 106.59M369.005 130.734L382.054 125.876L385.843 111.632L374.208 102.541M360.884 106.59L346.604 110.931L344.027 125.697M360.884 106.59L350.07 97.6678M360.884 106.59L374.208 102.541M344.027 125.697L341.63 139.482M344.027 125.697L333.773 116.134M341.63 139.482L331.779 129.785L333.773 116.134M374.208 102.541L363.318 94.0322L350.073 97.6616L335.908 101.537L346.605 110.923L358.092 121.001L372.467 116.145L385.845 111.626M333.773 116.134L335.905 101.544" stroke="black" stroke-width="0.3" stroke-linecap="round" stroke-linejoin="round"/>
</g>
<rect x="216" y="320" width="185" height="47" fill="black"/>
<rect x="216" y="320" width="6" height="47" fill="#FFB852"/>
<path d="M243.892 335.424H249.26C249.847 335.424 250.433 335.49 251.02 335.622C251.607 335.754 252.127 335.974 252.582 336.282C253.051 336.59 253.425 336.993 253.704 337.492C253.997 337.991 254.144 338.614 254.144 339.362C254.144 340.227 253.895 340.953 253.396 341.54C252.897 342.127 252.237 342.53 251.416 342.75V342.794C251.915 342.853 252.377 342.985 252.802 343.19C253.227 343.381 253.594 343.637 253.902 343.96C254.21 344.283 254.445 344.664 254.606 345.104C254.782 345.544 254.87 346.035 254.87 346.578C254.87 347.326 254.716 347.979 254.408 348.536C254.1 349.093 253.682 349.555 253.154 349.922C252.626 350.274 252.003 350.545 251.284 350.736C250.58 350.912 249.825 351 249.018 351H243.892V335.424ZM246.07 342.002H248.908C249.319 342.002 249.707 341.958 250.074 341.87C250.455 341.767 250.785 341.621 251.064 341.43C251.343 341.225 251.563 340.975 251.724 340.682C251.885 340.374 251.966 340.007 251.966 339.582C251.966 338.746 251.658 338.152 251.042 337.8C250.426 337.433 249.597 337.25 248.556 337.25H246.07V342.002ZM246.07 349.152H248.798C249.253 349.152 249.707 349.115 250.162 349.042C250.631 348.954 251.049 348.807 251.416 348.602C251.797 348.397 252.098 348.125 252.318 347.788C252.553 347.436 252.67 346.996 252.67 346.468C252.67 345.544 252.355 344.877 251.724 344.466C251.093 344.055 250.184 343.85 248.996 343.85H246.07V349.152ZM263.441 344.708H257.215V343.234L260.823 339.604C261.058 339.355 261.263 339.098 261.439 338.834C261.615 338.555 261.703 338.24 261.703 337.888C261.703 337.507 261.579 337.213 261.329 337.008C261.08 336.788 260.765 336.678 260.383 336.678C259.987 336.678 259.657 336.817 259.393 337.096C259.129 337.36 258.961 337.719 258.887 338.174L257.259 337.954C257.377 337.147 257.721 336.487 258.293 335.974C258.865 335.446 259.562 335.182 260.383 335.182C260.779 335.182 261.161 335.241 261.527 335.358C261.894 335.461 262.217 335.629 262.495 335.864C262.774 336.084 262.994 336.363 263.155 336.7C263.331 337.037 263.419 337.433 263.419 337.888C263.419 338.519 263.258 339.054 262.935 339.494C262.627 339.934 262.275 340.345 261.879 340.726L259.371 343.19H263.441V344.708ZM282.95 347.876H282.994V335.424H285.172V351H282.422L274.194 338.284H274.15V351H271.972V335.424H274.81L282.95 347.876ZM291.144 349.064H299.284V351H288.966V335.424H298.954V337.338H291.144V342.002H298.492V343.872H291.144V349.064ZM307.635 351H305.457V337.338H300.463V335.424H312.629V337.338H307.635V351ZM318.819 347.832H318.863L322.515 335.424H324.913L328.543 347.832H328.587L332.019 335.424H334.329L329.753 351H327.487L323.703 338.482H323.659L319.875 351H317.609L313.033 335.424H315.387L318.819 347.832ZM351.897 343.19C351.897 344.393 351.684 345.5 351.259 346.512C350.848 347.509 350.276 348.375 349.543 349.108C348.81 349.827 347.937 350.391 346.925 350.802C345.913 351.198 344.813 351.396 343.625 351.396C342.437 351.396 341.337 351.198 340.325 350.802C339.328 350.391 338.462 349.827 337.729 349.108C336.996 348.375 336.424 347.509 336.013 346.512C335.602 345.5 335.397 344.393 335.397 343.19C335.397 341.973 335.602 340.865 336.013 339.868C336.424 338.856 336.996 337.998 337.729 337.294C338.462 336.575 339.328 336.018 340.325 335.622C341.337 335.226 342.437 335.028 343.625 335.028C344.813 335.028 345.913 335.226 346.925 335.622C347.937 336.018 348.81 336.575 349.543 337.294C350.276 337.998 350.848 338.856 351.259 339.868C351.684 340.865 351.897 341.973 351.897 343.19ZM349.543 343.19C349.543 342.339 349.404 341.54 349.125 340.792C348.846 340.029 348.45 339.362 347.937 338.79C347.424 338.218 346.8 337.771 346.067 337.448C345.348 337.111 344.534 336.942 343.625 336.942C342.73 336.942 341.916 337.111 341.183 337.448C340.464 337.771 339.848 338.218 339.335 338.79C338.836 339.362 338.448 340.029 338.169 340.792C337.89 341.54 337.751 342.339 337.751 343.19C337.751 344.055 337.89 344.869 338.169 345.632C338.448 346.395 338.844 347.062 339.357 347.634C339.87 348.191 340.486 348.631 341.205 348.954C341.924 349.277 342.73 349.438 343.625 349.438C344.52 349.438 345.334 349.277 346.067 348.954C346.8 348.631 347.424 348.191 347.937 347.634C348.45 347.062 348.846 346.395 349.125 345.632C349.404 344.869 349.543 344.055 349.543 343.19ZM357.037 351H354.859V335.424H359.853C360.601 335.424 361.312 335.505 361.987 335.666C362.661 335.813 363.248 336.055 363.747 336.392C364.26 336.729 364.663 337.177 364.957 337.734C365.25 338.277 365.397 338.944 365.397 339.736C365.397 340.88 365.045 341.804 364.341 342.508C363.637 343.212 362.727 343.659 361.613 343.85L365.969 351H363.329L359.369 344.07H357.037V351ZM357.037 342.244H359.545C360.058 342.244 360.535 342.2 360.975 342.112C361.415 342.024 361.796 341.885 362.119 341.694C362.456 341.489 362.72 341.232 362.911 340.924C363.101 340.601 363.197 340.205 363.197 339.736C363.197 339.267 363.101 338.878 362.911 338.57C362.72 338.247 362.463 337.991 362.141 337.8C361.833 337.609 361.466 337.477 361.041 337.404C360.615 337.316 360.168 337.272 359.699 337.272H357.037V342.244ZM370.55 342.288H370.594L377.546 335.424H380.56L372.992 342.552L381.022 351H377.898L370.594 342.948H370.55V351H368.372V335.424H370.55V342.288Z" fill="white"/>
<path fill-rule="evenodd" clip-rule="evenodd" d="M13 399H1V387C1 393.627 6.37258 399 13 399Z" fill="black"/>
<path d="M0.5 0.5H401.5V399.5H0.5V0.5Z" stroke="black"/>
<path d="M0 1H1V400H0V1Z" fill="black"/>
<path fill-rule="evenodd" clip-rule="evenodd" d="M13 1H1V13C1 6.37258 6.37258 1 13 1Z" fill="black"/>
<path fill-rule="evenodd" clip-rule="evenodd" d="M389 1H401V13C401 6.37258 395.627 1 389 1Z" fill="black"/>
<path fill-rule="evenodd" clip-rule="evenodd" d="M389 399H401V387C401 393.627 395.627 399 389 399Z" fill="black"/>
<defs>
<clipPath id="clip0_675_192">
<rect width="848.35" height="235.65" fill="white" transform="translate(-223 201)"/>
</clipPath>
<clipPath id="clip1_675_192">
<rect width="161.955" height="125.567" fill="white" transform="translate(-51 225)"/>
</clipPath>
<clipPath id="clip2_675_192">
<rect width="161.955" height="125.567" fill="white" transform="translate(-51 225)"/>
</clipPath>
<clipPath id="clip3_675_192">
<rect width="126" height="65.0084" fill="white" transform="translate(-62 95.3247)"/>
</clipPath>
<clipPath id="clip4_675_192">
<rect width="52.96" height="52.96" fill="white" transform="translate(274 40)"/>
</clipPath>
<clipPath id="clip5_675_192">
<rect width="52.96" height="52.96" fill="white" transform="translate(310 25)"/>
</clipPath>
<clipPath id="clip6_675_192">
<rect width="108.798" height="30" fill="white" transform="translate(21 20)"/>
</clipPath>
<clipPath id="clip7_675_192">
<rect width="54.374" height="56.1228" fill="white" transform="translate(331.625 93.8772)"/>
</clipPath>
</defs>
</svg>
